<svg width="305" height="35" viewBox="0 0 305 35" fill="none" xmlns="http://www.w3.org/2000/svg">
<rect y="0.506836" width="34" height="34" rx="2" fill="white"/>
<path d="M10.25 10.7568H23.75C24.1642 10.7568 24.5 11.0926 24.5 11.5068V23.5068C24.5 23.9211 24.1642 24.2568 23.75 24.2568H10.25C9.83579 24.2568 9.5 23.9211 9.5 23.5068V11.5068C9.5 11.0926 9.83579 10.7568 10.25 10.7568ZM17.0455 17.269L12.2354 13.1851L11.2646 14.3286L17.0548 19.2447L22.7408 14.324L21.7592 13.1897L17.0455 17.269Z" fill="#500878"/>
<path d="M46.624 21.1388L46.976 20.0668C47.392 20.3388 48.128 20.6268 48.832 20.6268C49.856 20.6268 50.336 20.1148 50.336 19.4748C50.336 18.8028 49.936 18.4348 48.896 18.0508C47.504 17.5548 46.848 16.7868 46.848 15.8588C46.848 14.6108 47.856 13.5868 49.52 13.5868C50.304 13.5868 50.992 13.8108 51.424 14.0668L51.072 15.0908C50.768 14.8988 50.208 14.6428 49.488 14.6428C48.656 14.6428 48.192 15.1228 48.192 15.6988C48.192 16.3388 48.656 16.6268 49.664 17.0108C51.008 17.5228 51.696 18.1948 51.696 19.3468C51.696 20.7068 50.64 21.6828 48.8 21.6828C47.952 21.6828 47.168 21.4588 46.624 21.1388ZM58.9518 16.7548V19.6508C58.9518 20.3228 58.9838 20.9788 59.0798 21.5068H57.7998L57.6878 20.5308H57.6398C57.2078 21.1388 56.3758 21.6828 55.2718 21.6828C53.7038 21.6828 52.9038 20.5788 52.9038 19.4588C52.9038 17.5868 54.5678 16.5628 57.5598 16.5788V16.4188C57.5598 15.7788 57.3838 14.6268 55.7998 14.6268C55.0798 14.6268 54.3278 14.8508 53.7838 15.2028L53.4638 14.2748C54.1038 13.8588 55.0318 13.5868 56.0078 13.5868C58.3758 13.5868 58.9518 15.2028 58.9518 16.7548ZM57.5918 18.8988V17.5548C56.0558 17.5228 54.3118 17.7948 54.3118 19.2988C54.3118 20.2108 54.9198 20.6428 55.6398 20.6428C56.6478 20.6428 57.2878 20.0028 57.5118 19.3468C57.5598 19.2028 57.5918 19.0428 57.5918 18.8988ZM61.2305 21.5068V10.1468H62.6385V21.5068H61.2305ZM70.4518 16.7548V19.6508C70.4518 20.3228 70.4838 20.9788 70.5798 21.5068H69.2998L69.1878 20.5308H69.1398C68.7078 21.1388 67.8758 21.6828 66.7718 21.6828C65.2038 21.6828 64.4038 20.5788 64.4038 19.4588C64.4038 17.5868 66.0678 16.5628 69.0598 16.5788V16.4188C69.0598 15.7788 68.8838 14.6268 67.2998 14.6268C66.5798 14.6268 65.8278 14.8508 65.2838 15.2028L64.9638 14.2748C65.6038 13.8588 66.5318 13.5868 67.5078 13.5868C69.8758 13.5868 70.4518 15.2028 70.4518 16.7548ZM69.0918 18.8988V17.5548C67.5558 17.5228 65.8118 17.7948 65.8118 19.2988C65.8118 20.2108 66.4198 20.6428 67.1398 20.6428C68.1478 20.6428 68.7878 20.0028 69.0118 19.3468C69.0598 19.2028 69.0918 19.0428 69.0918 18.8988ZM72.7305 21.5068V15.8588C72.7305 15.0588 72.7145 14.4028 72.6665 13.7628H73.8985L73.9625 15.0108H74.0105C74.4425 14.2748 75.1625 13.5868 76.4425 13.5868C77.4985 13.5868 78.2985 14.2268 78.6345 15.1388H78.6665C78.9065 14.7068 79.2105 14.3708 79.5305 14.1308C79.9945 13.7788 80.5065 13.5868 81.2425 13.5868C82.2665 13.5868 83.7865 14.2588 83.7865 16.9468V21.5068H82.4105V17.1228C82.4105 15.6348 81.8665 14.7388 80.7305 14.7388C79.9305 14.7388 79.3065 15.3308 79.0665 16.0188C79.0025 16.2108 78.9545 16.4668 78.9545 16.7228V21.5068H77.5785V16.8668C77.5785 15.6348 77.0345 14.7388 75.9625 14.7388C75.0825 14.7388 74.4425 15.4428 74.2185 16.1468C74.1385 16.3548 74.1065 16.5948 74.1065 16.8348V21.5068H72.7305ZM92.5543 13.7628V19.3948C92.5543 20.1948 92.5703 20.8988 92.6183 21.5068H91.3703L91.2903 20.2428H91.2583C90.8903 20.8668 90.0743 21.6828 88.6983 21.6828C87.4823 21.6828 86.0263 21.0108 86.0263 18.2908V13.7628H87.4343V18.0508C87.4343 19.5228 87.8823 20.5148 89.1623 20.5148C90.1063 20.5148 90.7623 19.8588 91.0183 19.2348C91.0983 19.0268 91.1463 18.7708 91.1463 18.5148V13.7628H92.5543ZM100.327 16.7548V19.6508C100.327 20.3228 100.359 20.9788 100.455 21.5068H99.1748L99.0628 20.5308H99.0148C98.5828 21.1388 97.7508 21.6828 96.6468 21.6828C95.0788 21.6828 94.2788 20.5788 94.2788 19.4588C94.2788 17.5868 95.9428 16.5628 98.9348 16.5788V16.4188C98.9348 15.7788 98.7588 14.6268 97.1748 14.6268C96.4548 14.6268 95.7028 14.8508 95.1588 15.2028L94.8388 14.2748C95.4788 13.8588 96.4068 13.5868 97.3828 13.5868C99.7508 13.5868 100.327 15.2028 100.327 16.7548ZM98.9668 18.8988V17.5548C97.4308 17.5228 95.6868 17.7948 95.6868 19.2988C95.6868 20.2108 96.2948 20.6428 97.0148 20.6428C98.0228 20.6428 98.6628 20.0028 98.8868 19.3468C98.9348 19.2028 98.9668 19.0428 98.9668 18.8988ZM102.606 21.5068V15.8588C102.606 15.0588 102.59 14.4028 102.542 13.7628H103.774L103.838 15.0108H103.886C104.318 14.2748 105.038 13.5868 106.318 13.5868C107.374 13.5868 108.174 14.2268 108.51 15.1388H108.542C108.782 14.7068 109.086 14.3708 109.406 14.1308C109.87 13.7788 110.382 13.5868 111.118 13.5868C112.142 13.5868 113.662 14.2588 113.662 16.9468V21.5068H112.286V17.1228C112.286 15.6348 111.742 14.7388 110.606 14.7388C109.806 14.7388 109.182 15.3308 108.942 16.0188C108.878 16.2108 108.83 16.4668 108.83 16.7228V21.5068H107.454V16.8668C107.454 15.6348 106.91 14.7388 105.838 14.7388C104.958 14.7388 104.318 15.4428 104.094 16.1468C104.014 16.3548 103.982 16.5948 103.982 16.8348V21.5068H102.606ZM121.389 16.7548V19.6508C121.389 20.3228 121.421 20.9788 121.517 21.5068H120.237L120.125 20.5308H120.077C119.645 21.1388 118.813 21.6828 117.709 21.6828C116.141 21.6828 115.341 20.5788 115.341 19.4588C115.341 17.5868 117.005 16.5628 119.997 16.5788V16.4188C119.997 15.7788 119.821 14.6268 118.237 14.6268C117.517 14.6268 116.765 14.8508 116.221 15.2028L115.901 14.2748C116.541 13.8588 117.469 13.5868 118.445 13.5868C120.813 13.5868 121.389 15.2028 121.389 16.7548ZM120.029 18.8988V17.5548C118.493 17.5228 116.749 17.7948 116.749 19.2988C116.749 20.2108 117.357 20.6428 118.077 20.6428C119.085 20.6428 119.725 20.0028 119.949 19.3468C119.997 19.2028 120.029 19.0428 120.029 18.8988ZM123.668 21.5068V10.1468H125.076V21.5068H123.668ZM132.889 16.7548V19.6508C132.889 20.3228 132.921 20.9788 133.017 21.5068H131.737L131.625 20.5308H131.577C131.145 21.1388 130.313 21.6828 129.209 21.6828C127.641 21.6828 126.841 20.5788 126.841 19.4588C126.841 17.5868 128.505 16.5628 131.497 16.5788V16.4188C131.497 15.7788 131.321 14.6268 129.737 14.6268C129.017 14.6268 128.265 14.8508 127.721 15.2028L127.401 14.2748C128.041 13.8588 128.969 13.5868 129.945 13.5868C132.313 13.5868 132.889 15.2028 132.889 16.7548ZM131.529 18.8988V17.5548C129.993 17.5228 128.249 17.7948 128.249 19.2988C128.249 20.2108 128.857 20.6428 129.577 20.6428C130.585 20.6428 131.225 20.0028 131.449 19.3468C131.497 19.2028 131.529 19.0428 131.529 18.8988ZM135.426 12.3388L136.802 11.9068V13.7628H138.818V14.8348H136.802V19.0108C136.802 19.9708 137.074 20.5148 137.858 20.5148C138.242 20.5148 138.466 20.4828 138.674 20.4188L138.738 21.4748C138.466 21.5868 138.034 21.6828 137.49 21.6828C136.834 21.6828 136.306 21.4588 135.97 21.0748C135.57 20.6588 135.426 19.9708 135.426 19.0588V14.8348H134.226V13.7628H135.426V12.3388ZM146.402 17.4268L146.738 15.6188C146.578 15.5708 146.306 15.5068 145.938 15.5068C144.53 15.5068 143.394 16.8348 143.394 18.3868C143.394 19.0908 143.746 19.6028 144.45 19.6028C145.378 19.6028 146.226 18.4188 146.402 17.4268ZM147.362 21.8588L147.618 22.5468C146.738 23.0108 145.842 23.1868 144.77 23.1868C142.146 23.1868 139.922 21.2668 139.922 18.1788C139.922 14.8828 142.21 12.0188 145.762 12.0188C148.546 12.0188 150.418 13.9868 150.418 16.6588C150.418 19.0588 149.074 20.4668 147.57 20.4668C146.93 20.4668 146.338 20.0348 146.386 19.0588H146.322C145.762 20.0028 145.026 20.4668 144.066 20.4668C143.138 20.4668 142.338 19.7148 142.338 18.4508C142.338 16.4668 143.906 14.6588 146.13 14.6588C146.818 14.6588 147.426 14.8028 147.842 14.9948L147.298 17.8908C147.058 19.1068 147.25 19.6668 147.778 19.6828C148.594 19.6988 149.506 18.6108 149.506 16.7548C149.506 14.4348 148.114 12.7548 145.634 12.7548C143.026 12.7548 140.834 14.8348 140.834 18.0828C140.834 20.7548 142.578 22.4188 144.946 22.4188C145.858 22.4188 146.706 22.2268 147.362 21.8588ZM152.199 19.5068V10.1468H153.591V15.0108H153.623C154.119 14.1468 155.015 13.5868 156.263 13.5868C158.183 13.5868 159.543 15.1868 159.527 17.5388C159.527 20.3068 157.783 21.6828 156.055 21.6828C154.935 21.6828 154.039 21.2508 153.463 20.2268H153.415L153.351 21.5068H152.135C152.167 20.9788 152.199 20.1948 152.199 19.5068ZM153.591 17.0108V18.4028C153.591 18.5788 153.623 18.7548 153.655 18.9148C153.927 19.8908 154.743 20.5628 155.767 20.5628C157.239 20.5628 158.119 19.3628 158.119 17.5868C158.119 16.0348 157.319 14.7068 155.815 14.7068C154.855 14.7068 153.959 15.3628 153.671 16.4348C153.639 16.5948 153.591 16.7868 153.591 17.0108ZM166.749 16.7548V19.6508C166.749 20.3228 166.781 20.9788 166.877 21.5068H165.597L165.485 20.5308H165.437C165.005 21.1388 164.173 21.6828 163.069 21.6828C161.501 21.6828 160.701 20.5788 160.701 19.4588C160.701 17.5868 162.365 16.5628 165.357 16.5788V16.4188C165.357 15.7788 165.181 14.6268 163.597 14.6268C162.877 14.6268 162.125 14.8508 161.581 15.2028L161.261 14.2748C161.901 13.8588 162.829 13.5868 163.805 13.5868C166.173 13.5868 166.749 15.2028 166.749 16.7548ZM165.389 18.8988V17.5548C163.853 17.5228 162.109 17.7948 162.109 19.2988C162.109 20.2108 162.717 20.6428 163.437 20.6428C164.445 20.6428 165.085 20.0028 165.309 19.3468C165.357 19.2028 165.389 19.0428 165.389 18.8988ZM169.027 21.5068V15.8588C169.027 15.0588 169.011 14.4028 168.963 13.7628H170.211L170.291 15.0428H170.323C170.707 14.3068 171.603 13.5868 172.883 13.5868C173.955 13.5868 175.619 14.2268 175.619 16.8828V21.5068H174.211V17.0428C174.211 15.7948 173.747 14.7548 172.419 14.7548C171.491 14.7548 170.771 15.4108 170.531 16.1948C170.467 16.3708 170.435 16.6108 170.435 16.8508V21.5068H169.027ZM179.294 10.1468V17.3148H179.326C179.518 17.0428 179.79 16.7068 180.014 16.4348L182.286 13.7628H183.982L180.99 16.9468L184.398 21.5068H182.686L180.014 17.7948L179.294 18.5948V21.5068H177.902V10.1468H179.294ZM185.668 21.5068V15.8588C185.668 15.0588 185.652 14.4028 185.604 13.7628H186.836L186.9 15.0108H186.948C187.38 14.2748 188.1 13.5868 189.38 13.5868C190.436 13.5868 191.236 14.2268 191.572 15.1388H191.604C191.844 14.7068 192.148 14.3708 192.468 14.1308C192.932 13.7788 193.444 13.5868 194.18 13.5868C195.204 13.5868 196.724 14.2588 196.724 16.9468V21.5068H195.348V17.1228C195.348 15.6348 194.804 14.7388 193.668 14.7388C192.868 14.7388 192.244 15.3308 192.004 16.0188C191.94 16.2108 191.892 16.4668 191.892 16.7228V21.5068H190.516V16.8668C190.516 15.6348 189.972 14.7388 188.9 14.7388C188.02 14.7388 187.38 15.4428 187.156 16.1468C187.076 16.3548 187.044 16.5948 187.044 16.8348V21.5068H185.668ZM205.492 13.7628V19.3948C205.492 20.1948 205.508 20.8988 205.556 21.5068H204.308L204.228 20.2428H204.196C203.828 20.8668 203.012 21.6828 201.636 21.6828C200.42 21.6828 198.964 21.0108 198.964 18.2908V13.7628H200.372V18.0508C200.372 19.5228 200.82 20.5148 202.1 20.5148C203.044 20.5148 203.7 19.8588 203.956 19.2348C204.036 19.0268 204.084 18.7708 204.084 18.5148V13.7628H205.492ZM213.264 16.7548V19.6508C213.264 20.3228 213.296 20.9788 213.392 21.5068H212.112L212 20.5308H211.952C211.52 21.1388 210.688 21.6828 209.584 21.6828C208.016 21.6828 207.216 20.5788 207.216 19.4588C207.216 17.5868 208.88 16.5628 211.872 16.5788V16.4188C211.872 15.7788 211.696 14.6268 210.112 14.6268C209.392 14.6268 208.64 14.8508 208.096 15.2028L207.776 14.2748C208.416 13.8588 209.344 13.5868 210.32 13.5868C212.688 13.5868 213.264 15.2028 213.264 16.7548ZM211.904 18.8988V17.5548C210.368 17.5228 208.624 17.7948 208.624 19.2988C208.624 20.2108 209.232 20.6428 209.952 20.6428C210.96 20.6428 211.6 20.0028 211.824 19.3468C211.872 19.2028 211.904 19.0428 211.904 18.8988ZM215.543 21.5068V15.8588C215.543 15.0588 215.527 14.4028 215.479 13.7628H216.711L216.775 15.0108H216.823C217.255 14.2748 217.975 13.5868 219.255 13.5868C220.311 13.5868 221.111 14.2268 221.447 15.1388H221.479C221.719 14.7068 222.023 14.3708 222.343 14.1308C222.807 13.7788 223.319 13.5868 224.055 13.5868C225.079 13.5868 226.599 14.2588 226.599 16.9468V21.5068H225.223V17.1228C225.223 15.6348 224.679 14.7388 223.543 14.7388C222.743 14.7388 222.119 15.3308 221.879 16.0188C221.815 16.2108 221.767 16.4668 221.767 16.7228V21.5068H220.391V16.8668C220.391 15.6348 219.847 14.7388 218.775 14.7388C217.895 14.7388 217.255 15.4428 217.031 16.1468C216.951 16.3548 216.919 16.5948 216.919 16.8348V21.5068H215.543ZM234.327 16.7548V19.6508C234.327 20.3228 234.359 20.9788 234.455 21.5068H233.175L233.063 20.5308H233.015C232.583 21.1388 231.751 21.6828 230.647 21.6828C229.079 21.6828 228.279 20.5788 228.279 19.4588C228.279 17.5868 229.943 16.5628 232.935 16.5788V16.4188C232.935 15.7788 232.759 14.6268 231.175 14.6268C230.455 14.6268 229.703 14.8508 229.159 15.2028L228.839 14.2748C229.479 13.8588 230.407 13.5868 231.383 13.5868C233.751 13.5868 234.327 15.2028 234.327 16.7548ZM232.967 18.8988V17.5548C231.431 17.5228 229.687 17.7948 229.687 19.2988C229.687 20.2108 230.295 20.6428 231.015 20.6428C232.023 20.6428 232.663 20.0028 232.887 19.3468C232.935 19.2028 232.967 19.0428 232.967 18.8988ZM236.606 21.5068V10.1468H238.014V21.5068H236.606ZM245.827 16.7548V19.6508C245.827 20.3228 245.859 20.9788 245.955 21.5068H244.675L244.563 20.5308H244.515C244.083 21.1388 243.251 21.6828 242.147 21.6828C240.579 21.6828 239.779 20.5788 239.779 19.4588C239.779 17.5868 241.443 16.5628 244.435 16.5788V16.4188C244.435 15.7788 244.259 14.6268 242.675 14.6268C241.955 14.6268 241.203 14.8508 240.659 15.2028L240.339 14.2748C240.979 13.8588 241.907 13.5868 242.883 13.5868C245.251 13.5868 245.827 15.2028 245.827 16.7548ZM244.467 18.8988V17.5548C242.931 17.5228 241.187 17.7948 241.187 19.2988C241.187 20.2108 241.795 20.6428 242.515 20.6428C243.523 20.6428 244.163 20.0028 244.387 19.3468C244.435 19.2028 244.467 19.0428 244.467 18.8988ZM248.363 12.3388L249.739 11.9068V13.7628H251.755V14.8348H249.739V19.0108C249.739 19.9708 250.011 20.5148 250.795 20.5148C251.179 20.5148 251.403 20.4828 251.611 20.4188L251.675 21.4748C251.403 21.5868 250.971 21.6828 250.427 21.6828C249.771 21.6828 249.243 21.4588 248.907 21.0748C248.507 20.6588 248.363 19.9708 248.363 19.0588V14.8348H247.163V13.7628H248.363V12.3388ZM253.901 21.6828H253.885C253.341 21.6828 252.957 21.2508 252.957 20.6748C252.957 20.0828 253.357 19.6668 253.917 19.6668C254.477 19.6668 254.861 20.0828 254.861 20.6748C254.861 21.2508 254.493 21.6828 253.901 21.6828ZM261.886 20.1628L262.126 21.2188C261.758 21.4108 260.942 21.6828 259.902 21.6828C257.566 21.6828 256.046 20.0828 256.046 17.7148C256.046 15.3308 257.678 13.6028 260.206 13.6028C261.038 13.6028 261.774 13.8108 262.158 14.0028L261.838 15.0908C261.502 14.8988 260.974 14.7228 260.206 14.7228C258.43 14.7228 257.47 16.0348 257.47 17.6508C257.47 19.4428 258.622 20.5468 260.158 20.5468C260.958 20.5468 261.486 20.3388 261.886 20.1628ZM266.964 13.5868C269.188 13.5868 270.692 15.2028 270.692 17.5708C270.692 20.4348 268.708 21.6828 266.836 21.6828C264.74 21.6828 263.124 20.1468 263.124 17.6988C263.124 15.1068 264.82 13.5868 266.964 13.5868ZM266.932 14.6428C265.268 14.6428 264.548 16.1788 264.548 17.6508C264.548 19.3468 265.524 20.6268 266.9 20.6268C268.244 20.6268 269.252 19.3628 269.252 17.6188C269.252 16.3068 268.596 14.6428 266.932 14.6428ZM272.682 21.6828H272.666C272.122 21.6828 271.738 21.2508 271.738 20.6748C271.738 20.0828 272.138 19.6668 272.698 19.6668C273.258 19.6668 273.642 20.0828 273.642 20.6748C273.642 21.2508 273.274 21.6828 272.682 21.6828ZM276.795 21.5068H275.387V13.7628H276.795V21.5068ZM276.091 10.7068C276.619 10.7068 276.955 11.0908 276.955 11.5868C276.971 12.0668 276.619 12.4508 276.059 12.4508C275.563 12.4508 275.211 12.0668 275.211 11.5868C275.211 11.0908 275.579 10.7068 276.091 10.7068ZM284.417 10.1468H285.825V19.5068C285.825 20.1948 285.841 20.9788 285.889 21.5068H284.625L284.561 20.1628H284.529C284.097 21.0268 283.153 21.6828 281.889 21.6828C280.017 21.6828 278.577 20.0988 278.577 17.7468C278.561 15.1708 280.161 13.5868 282.049 13.5868C283.233 13.5868 284.033 14.1468 284.385 14.7708H284.417V10.1468ZM284.417 18.2588V16.9148C284.417 16.7388 284.401 16.4988 284.353 16.3228C284.145 15.4268 283.377 14.6908 282.321 14.6908C280.865 14.6908 280.001 15.9708 280.001 17.6828C280.001 19.2508 280.769 20.5468 282.289 20.5468C283.233 20.5468 284.097 19.9228 284.353 18.8668C284.401 18.6748 284.417 18.4828 284.417 18.2588Z" fill="white"/>
</svg>
