<svg width="472" height="26" viewBox="0 0 472 26" fill="none" xmlns="http://www.w3.org/2000/svg">
<path d="M18.5625 18.2495C18.5391 20.6401 17.7773 22.3276 16.2773 23.312C14.7773 24.3198 12.6562 24.8003 9.91406 24.7534H2.98828V4.08154H0.984375V1.97217H9.52734C11.8477 1.90186 13.6875 2.30029 15.0469 3.16748C16.5469 4.19873 17.2969 5.66357 17.2969 7.56201C17.2969 10.0464 16.3125 11.7222 14.3438 12.5894C17.0859 13.1284 18.4922 15.0151 18.5625 18.2495ZM14.3438 7.84326C14.3672 6.57764 13.8867 5.56982 12.9023 4.81982C12.1523 4.28076 10.9219 4.03467 9.21094 4.08154H6.04688V11.9917H9.24609C11.168 12.0151 12.5156 11.6753 13.2891 10.9722C13.9922 10.2925 14.3438 9.24951 14.3438 7.84326ZM15.3633 18.1792C15.3867 16.8198 15.0117 15.7886 14.2383 15.0854C13.207 14.2183 11.6133 13.8315 9.45703 13.9253H6.04688V22.644H9.38672C11.6367 22.6675 13.1953 22.3159 14.0625 21.5894C14.9531 20.8862 15.3867 19.7495 15.3633 18.1792V18.144V18.1792ZM38.8477 22.5034L38.7422 24.3315C38.2734 24.6597 37.6172 24.8354 36.7734 24.8589C35.3672 24.8823 34.5117 24.1909 34.207 22.7847C33.1758 24.2144 31.4414 24.9644 29.0039 25.0347C26.8477 25.0112 25.2188 24.3901 24.1172 23.1714C23.1094 21.9526 22.6523 20.3706 22.7461 18.4253V7.31592H25.5586V18.1089C25.4648 19.7729 25.7695 20.98 26.4727 21.73C27.1523 22.4331 28.1719 22.7847 29.5312 22.7847C31.0312 22.7847 32.1562 22.3511 32.9062 21.4839C33.7031 20.6401 34.0664 19.2573 33.9961 17.3354V7.31592H36.8086V21.3081C36.7852 22.3862 37.1133 22.8901 37.793 22.8198C38.2148 22.7964 38.5664 22.6909 38.8477 22.5034V22.4683V22.5034ZM51.2578 22.2573L51.2227 24.2964C50.2852 24.7651 49.1719 25.0112 47.8828 25.0347C46.3359 25.0112 45.1641 24.5425 44.3672 23.6284C43.7109 22.855 43.4062 21.5894 43.4531 19.8315V9.42529H40.8867V7.31592H43.4531V2.78076L46.2656 1.83154V7.31592H50.4492V9.42529H46.2656V19.7612C46.2656 20.8628 46.4414 21.6714 46.793 22.187C47.1445 22.7261 47.7539 22.9839 48.6211 22.9604C49.6992 22.937 50.5781 22.7026 51.2578 22.2573V22.2222V22.2573ZM70.9102 22.5034L70.8047 24.3315C70.3359 24.6597 69.6797 24.8354 68.8359 24.8589C67.4297 24.8823 66.5742 24.1909 66.2695 22.7847C65.2383 24.2144 63.5039 24.9644 61.0664 25.0347C58.9102 25.0112 57.2812 24.3901 56.1797 23.1714C55.1719 21.9526 54.7148 20.3706 54.8086 18.4253V7.31592H57.6211V18.1089C57.5273 19.7729 57.832 20.98 58.5352 21.73C59.2148 22.4331 60.2344 22.7847 61.5938 22.7847C63.0938 22.7847 64.2188 22.3511 64.9688 21.4839C65.7656 20.6401 66.1289 19.2573 66.0586 17.3354V7.31592H68.8711V21.3081C68.8477 22.3862 69.1758 22.8901 69.8555 22.8198C70.2773 22.7964 70.6289 22.6909 70.9102 22.5034V22.4683V22.5034ZM88.875 13.644V24.7534H86.0625V13.9604C86.1562 12.3198 85.8633 11.1245 85.1836 10.3745C84.5273 9.64795 83.5312 9.28467 82.1953 9.28467C80.6953 9.30811 79.582 9.75342 78.8555 10.6206C78.082 11.4409 77.7188 12.8237 77.7656 14.769V24.7534H74.9531V0.144043H77.7656V9.07373C78.8672 7.76123 80.5078 7.08154 82.6875 7.03467C84.7969 7.08154 86.4141 7.71436 87.5391 8.93311C88.5234 10.1519 88.9688 11.7222 88.875 13.644V13.6089V13.644ZM91.582 24.7534V24.7183V24.7534ZM118.23 18.2495C118.207 20.6401 117.445 22.3276 115.945 23.312C114.445 24.3198 112.324 24.8003 109.582 24.7534H102.656V4.08154H100.652V1.97217H109.195C111.516 1.90186 113.355 2.30029 114.715 3.16748C116.215 4.19873 116.965 5.66357 116.965 7.56201C116.965 10.0464 115.98 11.7222 114.012 12.5894C116.754 13.1284 118.16 15.0151 118.23 18.2495ZM114.012 7.84326C114.035 6.57764 113.555 5.56982 112.57 4.81982C111.82 4.28076 110.59 4.03467 108.879 4.08154H105.715V11.9917H108.914C110.836 12.0151 112.184 11.6753 112.957 10.9722C113.66 10.2925 114.012 9.24951 114.012 7.84326ZM115.031 18.1792C115.055 16.8198 114.68 15.7886 113.906 15.0854C112.875 14.2183 111.281 13.8315 109.125 13.9253H105.715V22.644H109.055C111.305 22.6675 112.863 22.3159 113.73 21.5894C114.621 20.8862 115.055 19.7495 115.031 18.1792V18.144V18.1792ZM137.109 22.5737L137.004 24.3667C136.512 24.6714 135.867 24.8354 135.07 24.8589C133.547 24.8823 132.68 24.2144 132.469 22.855C131.414 24.3081 129.867 25.0347 127.828 25.0347C126.023 25.0347 124.559 24.5425 123.434 23.5581C122.332 22.5972 121.758 21.2026 121.711 19.3745C121.711 17.6167 122.297 16.2104 123.469 15.1558C124.641 14.1011 126.363 13.562 128.637 13.5386L132.258 13.9956V13.0464C132.281 11.7808 132.012 10.8315 131.449 10.1987C130.84 9.44873 129.75 9.05029 128.18 9.00342C126.398 9.05029 124.781 9.43701 123.328 10.1636L123.258 8.12451C124.641 7.46826 126.375 7.10498 128.461 7.03467C130.852 7.01123 132.633 7.62061 133.805 8.86279C134.672 9.80029 135.094 11.1831 135.07 13.0112V21.4136C135 22.4214 135.316 22.9136 136.02 22.8901C136.418 22.8667 136.781 22.7612 137.109 22.5737ZM132.258 18.4956V15.894L128.918 15.4722C125.824 15.6362 124.359 16.8901 124.523 19.2339C124.547 20.5229 124.91 21.4839 125.613 22.1167C126.293 22.7495 127.148 23.0659 128.18 23.0659C129.633 23.0425 130.688 22.6206 131.344 21.8003C131.977 20.98 132.281 19.8784 132.258 18.4956V18.4604V18.4956ZM155.145 13.6089V24.7534H152.332V13.9604C152.426 12.2964 152.133 11.0894 151.453 10.3394C150.797 9.61279 149.801 9.24951 148.465 9.24951C146.965 9.27295 145.852 9.71826 145.125 10.5854C144.352 11.4058 143.988 12.7886 144.035 14.7339V24.7534H141.223V9.42529H139.219V7.31592H143.086L143.578 9.49561C144.633 7.87842 146.426 7.05811 148.957 7.03467C151.066 7.08154 152.684 7.70264 153.809 8.89795C154.793 10.1167 155.238 11.687 155.145 13.6089V13.5737V13.6089ZM169.102 22.2573L169.066 24.2964C168.129 24.7651 167.016 25.0112 165.727 25.0347C164.18 25.0112 163.008 24.5425 162.211 23.6284C161.555 22.855 161.25 21.5894 161.297 19.8315V9.42529H158.73V7.31592H161.297V2.78076L164.109 1.83154V7.31592H168.293V9.42529H164.109V19.7612C164.109 20.8628 164.285 21.6714 164.637 22.187C164.988 22.7261 165.598 22.9839 166.465 22.9604C167.543 22.937 168.422 22.7026 169.102 22.2573V22.2222V22.2573ZM188.754 22.5034L188.648 24.3315C188.18 24.6597 187.523 24.8354 186.68 24.8589C185.273 24.8823 184.418 24.1909 184.113 22.7847C183.082 24.2144 181.348 24.9644 178.91 25.0347C176.754 25.0112 175.125 24.3901 174.023 23.1714C173.016 21.9526 172.559 20.3706 172.652 18.4253V7.31592H175.465V18.1089C175.371 19.7729 175.676 20.98 176.379 21.73C177.059 22.4331 178.078 22.7847 179.438 22.7847C180.938 22.7847 182.062 22.3511 182.812 21.4839C183.609 20.6401 183.973 19.2573 183.902 17.3354V7.31592H186.715V21.3081C186.691 22.3862 187.02 22.8901 187.699 22.8198C188.121 22.7964 188.473 22.6909 188.754 22.5034V22.4683V22.5034ZM207.07 22.5737L206.965 24.3667C206.473 24.6714 205.828 24.8354 205.031 24.8589C203.508 24.8823 202.641 24.2144 202.43 22.855C201.375 24.3081 199.828 25.0347 197.789 25.0347C195.984 25.0347 194.52 24.5425 193.395 23.5581C192.293 22.5972 191.719 21.2026 191.672 19.3745C191.672 17.6167 192.258 16.2104 193.43 15.1558C194.602 14.1011 196.324 13.562 198.598 13.5386L202.219 13.9956V13.0464C202.242 11.7808 201.973 10.8315 201.41 10.1987C200.801 9.44873 199.711 9.05029 198.141 9.00342C196.359 9.05029 194.742 9.43701 193.289 10.1636L193.219 8.12451C194.602 7.46826 196.336 7.10498 198.422 7.03467C200.812 7.01123 202.594 7.62061 203.766 8.86279C204.633 9.80029 205.055 11.1831 205.031 13.0112V21.4136C204.961 22.4214 205.277 22.9136 205.98 22.8901C206.379 22.8667 206.742 22.7612 207.07 22.5737ZM202.219 18.4956V15.894L198.879 15.4722C195.785 15.6362 194.32 16.8901 194.484 19.2339C194.508 20.5229 194.871 21.4839 195.574 22.1167C196.254 22.7495 197.109 23.0659 198.141 23.0659C199.594 23.0425 200.648 22.6206 201.305 21.8003C201.938 20.98 202.242 19.8784 202.219 18.4956V18.4604V18.4956ZM225.105 13.6089V24.7534H222.293V13.9604C222.387 12.2964 222.094 11.0894 221.414 10.3394C220.758 9.61279 219.762 9.24951 218.426 9.24951C216.926 9.27295 215.812 9.71826 215.086 10.5854C214.312 11.4058 213.949 12.7886 213.996 14.7339V24.7534H211.184V9.42529H209.18V7.31592H213.047L213.539 9.49561C214.594 7.87842 216.387 7.05811 218.918 7.03467C221.027 7.08154 222.645 7.70264 223.77 8.89795C224.754 10.1167 225.199 11.687 225.105 13.6089V13.5737V13.6089ZM227.742 24.7534V24.7183V24.7534ZM252.422 18.7417C252.352 20.9917 251.555 22.6089 250.031 23.5933C248.508 24.5776 246.691 25.0581 244.582 25.0347C242.309 25.0112 240.223 24.5894 238.324 23.769L238.465 21.3081C240.387 22.2925 242.414 22.7964 244.547 22.8198C247.828 22.7495 249.516 21.4722 249.609 18.9878C249.469 17.1362 248.484 15.8823 246.656 15.2261C244.828 14.5464 243 13.7729 241.172 12.9058C239.344 12.0151 238.359 10.3159 238.219 7.80811C238.266 6.07373 238.852 4.71436 239.977 3.72998C241.477 2.34717 243.492 1.6792 246.023 1.72607C247.734 1.74951 249.375 2.03076 250.945 2.56982L250.84 4.85498C249.27 4.29248 247.617 3.98779 245.883 3.94092C242.719 4.01123 241.102 5.19482 241.031 7.4917C241.172 9.29639 242.156 10.5269 243.984 11.1831C245.812 11.8159 247.641 12.5894 249.469 13.5034C251.297 14.4175 252.281 16.1636 252.422 18.7417V18.7065V18.7417ZM271.266 22.5737L271.16 24.3667C270.668 24.6714 270.023 24.8354 269.227 24.8589C267.703 24.8823 266.836 24.2144 266.625 22.855C265.57 24.3081 264.023 25.0347 261.984 25.0347C260.18 25.0347 258.715 24.5425 257.59 23.5581C256.488 22.5972 255.914 21.2026 255.867 19.3745C255.867 17.6167 256.453 16.2104 257.625 15.1558C258.797 14.1011 260.52 13.562 262.793 13.5386L266.414 13.9956V13.0464C266.438 11.7808 266.168 10.8315 265.605 10.1987C264.996 9.44873 263.906 9.05029 262.336 9.00342C260.555 9.05029 258.938 9.43701 257.484 10.1636L257.414 8.12451C258.797 7.46826 260.531 7.10498 262.617 7.03467C265.008 7.01123 266.789 7.62061 267.961 8.86279C268.828 9.80029 269.25 11.1831 269.227 13.0112V21.4136C269.156 22.4214 269.473 22.9136 270.176 22.8901C270.574 22.8667 270.938 22.7612 271.266 22.5737ZM266.414 18.4956V15.894L263.074 15.4722C259.98 15.6362 258.516 16.8901 258.68 19.2339C258.703 20.5229 259.066 21.4839 259.77 22.1167C260.449 22.7495 261.305 23.0659 262.336 23.0659C263.789 23.0425 264.844 22.6206 265.5 21.8003C266.133 20.98 266.438 19.8784 266.414 18.4956V18.4604V18.4956ZM280.09 22.6089L279.914 24.4019C279.469 24.7065 278.824 24.8706 277.98 24.894C277.02 24.894 276.316 24.6362 275.871 24.1206C275.449 23.6284 275.238 22.8667 275.238 21.8354V2.21826H273.234V0.144043H278.051V21.4136C278.004 22.4917 278.32 22.9956 279 22.9253C279.422 22.8784 279.785 22.7729 280.09 22.6089V22.5737V22.6089ZM298.793 22.5737L298.688 24.3667C298.195 24.6714 297.551 24.8354 296.754 24.8589C295.23 24.8823 294.363 24.2144 294.152 22.855C293.098 24.3081 291.551 25.0347 289.512 25.0347C287.707 25.0347 286.242 24.5425 285.117 23.5581C284.016 22.5972 283.441 21.2026 283.395 19.3745C283.395 17.6167 283.98 16.2104 285.152 15.1558C286.324 14.1011 288.047 13.562 290.32 13.5386L293.941 13.9956V13.0464C293.965 11.7808 293.695 10.8315 293.133 10.1987C292.523 9.44873 291.434 9.05029 289.863 9.00342C288.082 9.05029 286.465 9.43701 285.012 10.1636L284.941 8.12451C286.324 7.46826 288.059 7.10498 290.145 7.03467C292.535 7.01123 294.316 7.62061 295.488 8.86279C296.355 9.80029 296.777 11.1831 296.754 13.0112V21.4136C296.684 22.4214 297 22.9136 297.703 22.8901C298.102 22.8667 298.465 22.7612 298.793 22.5737ZM293.941 18.4956V15.894L290.602 15.4722C287.508 15.6362 286.043 16.8901 286.207 19.2339C286.23 20.5229 286.594 21.4839 287.297 22.1167C287.977 22.7495 288.832 23.0659 289.863 23.0659C291.316 23.0425 292.371 22.6206 293.027 21.8003C293.66 20.98 293.965 19.8784 293.941 18.4956V18.4604V18.4956ZM327.516 13.6089V24.7534H324.703V13.9604C324.797 12.2729 324.504 11.0659 323.824 10.3394C323.145 9.61279 322.172 9.24951 320.906 9.24951C319.5 9.24951 318.41 9.68311 317.637 10.5503C316.863 11.4175 316.5 12.812 316.547 14.7339V24.7534H313.734V13.9604C313.828 12.2729 313.547 11.0659 312.891 10.3394C312.234 9.61279 311.273 9.24951 310.008 9.24951C308.648 9.24951 307.582 9.68311 306.809 10.5503C306.035 11.4175 305.672 12.812 305.719 14.7339V24.7534H302.906V9.42529H300.902V7.31592H304.77L305.262 9.46045C306.387 7.91357 308.121 7.10498 310.465 7.03467C311.52 7.03467 312.539 7.25732 313.523 7.70264C314.531 8.12451 315.293 8.81592 315.809 9.77686C316.91 8.01904 318.773 7.10498 321.398 7.03467C323.531 7.10498 325.125 7.72607 326.18 8.89795C327.164 10.0698 327.609 11.6401 327.516 13.6089V13.5737V13.6089ZM348.785 22.5034L348.68 24.3315C348.211 24.6597 347.555 24.8354 346.711 24.8589C345.305 24.8823 344.449 24.1909 344.145 22.7847C343.113 24.2144 341.379 24.9644 338.941 25.0347C336.785 25.0112 335.156 24.3901 334.055 23.1714C333.047 21.9526 332.59 20.3706 332.684 18.4253V7.31592H335.496V18.1089C335.402 19.7729 335.707 20.98 336.41 21.73C337.09 22.4331 338.109 22.7847 339.469 22.7847C340.969 22.7847 342.094 22.3511 342.844 21.4839C343.641 20.6401 344.004 19.2573 343.934 17.3354V7.31592H346.746V21.3081C346.723 22.3862 347.051 22.8901 347.73 22.8198C348.152 22.7964 348.504 22.6909 348.785 22.5034V22.4683V22.5034ZM367.102 22.5737L366.996 24.3667C366.504 24.6714 365.859 24.8354 365.062 24.8589C363.539 24.8823 362.672 24.2144 362.461 22.855C361.406 24.3081 359.859 25.0347 357.82 25.0347C356.016 25.0347 354.551 24.5425 353.426 23.5581C352.324 22.5972 351.75 21.2026 351.703 19.3745C351.703 17.6167 352.289 16.2104 353.461 15.1558C354.633 14.1011 356.355 13.562 358.629 13.5386L362.25 13.9956V13.0464C362.273 11.7808 362.004 10.8315 361.441 10.1987C360.832 9.44873 359.742 9.05029 358.172 9.00342C356.391 9.05029 354.773 9.43701 353.32 10.1636L353.25 8.12451C354.633 7.46826 356.367 7.10498 358.453 7.03467C360.844 7.01123 362.625 7.62061 363.797 8.86279C364.664 9.80029 365.086 11.1831 365.062 13.0112V21.4136C364.992 22.4214 365.309 22.9136 366.012 22.8901C366.41 22.8667 366.773 22.7612 367.102 22.5737ZM362.25 18.4956V15.894L358.91 15.4722C355.816 15.6362 354.352 16.8901 354.516 19.2339C354.539 20.5229 354.902 21.4839 355.605 22.1167C356.285 22.7495 357.141 23.0659 358.172 23.0659C359.625 23.0425 360.68 22.6206 361.336 21.8003C361.969 20.98 362.273 19.8784 362.25 18.4956V18.4604V18.4956ZM395.824 13.6089V24.7534H393.012V13.9604C393.105 12.2729 392.812 11.0659 392.133 10.3394C391.453 9.61279 390.48 9.24951 389.215 9.24951C387.809 9.24951 386.719 9.68311 385.945 10.5503C385.172 11.4175 384.809 12.812 384.855 14.7339V24.7534H382.043V13.9604C382.137 12.2729 381.855 11.0659 381.199 10.3394C380.543 9.61279 379.582 9.24951 378.316 9.24951C376.957 9.24951 375.891 9.68311 375.117 10.5503C374.344 11.4175 373.98 12.812 374.027 14.7339V24.7534H371.215V9.42529H369.211V7.31592H373.078L373.57 9.46045C374.695 7.91357 376.43 7.10498 378.773 7.03467C379.828 7.03467 380.848 7.25732 381.832 7.70264C382.84 8.12451 383.602 8.81592 384.117 9.77686C385.219 8.01904 387.082 7.10498 389.707 7.03467C391.84 7.10498 393.434 7.72607 394.488 8.89795C395.473 10.0698 395.918 11.6401 395.824 13.6089V13.5737V13.6089ZM415.688 22.5737L415.582 24.3667C415.09 24.6714 414.445 24.8354 413.648 24.8589C412.125 24.8823 411.258 24.2144 411.047 22.855C409.992 24.3081 408.445 25.0347 406.406 25.0347C404.602 25.0347 403.137 24.5425 402.012 23.5581C400.91 22.5972 400.336 21.2026 400.289 19.3745C400.289 17.6167 400.875 16.2104 402.047 15.1558C403.219 14.1011 404.941 13.562 407.215 13.5386L410.836 13.9956V13.0464C410.859 11.7808 410.59 10.8315 410.027 10.1987C409.418 9.44873 408.328 9.05029 406.758 9.00342C404.977 9.05029 403.359 9.43701 401.906 10.1636L401.836 8.12451C403.219 7.46826 404.953 7.10498 407.039 7.03467C409.43 7.01123 411.211 7.62061 412.383 8.86279C413.25 9.80029 413.672 11.1831 413.648 13.0112V21.4136C413.578 22.4214 413.895 22.9136 414.598 22.8901C414.996 22.8667 415.359 22.7612 415.688 22.5737ZM410.836 18.4956V15.894L407.496 15.4722C404.402 15.6362 402.938 16.8901 403.102 19.2339C403.125 20.5229 403.488 21.4839 404.191 22.1167C404.871 22.7495 405.727 23.0659 406.758 23.0659C408.211 23.0425 409.266 22.6206 409.922 21.8003C410.555 20.98 410.859 19.8784 410.836 18.4956V18.4604V18.4956ZM424.512 22.6089L424.336 24.4019C423.891 24.7065 423.246 24.8706 422.402 24.894C421.441 24.894 420.738 24.6362 420.293 24.1206C419.871 23.6284 419.66 22.8667 419.66 21.8354V2.21826H417.656V0.144043H422.473V21.4136C422.426 22.4917 422.742 22.9956 423.422 22.9253C423.844 22.8784 424.207 22.7729 424.512 22.6089V22.5737V22.6089ZM443.215 22.5737L443.109 24.3667C442.617 24.6714 441.973 24.8354 441.176 24.8589C439.652 24.8823 438.785 24.2144 438.574 22.855C437.52 24.3081 435.973 25.0347 433.934 25.0347C432.129 25.0347 430.664 24.5425 429.539 23.5581C428.438 22.5972 427.863 21.2026 427.816 19.3745C427.816 17.6167 428.402 16.2104 429.574 15.1558C430.746 14.1011 432.469 13.562 434.742 13.5386L438.363 13.9956V13.0464C438.387 11.7808 438.117 10.8315 437.555 10.1987C436.945 9.44873 435.855 9.05029 434.285 9.00342C432.504 9.05029 430.887 9.43701 429.434 10.1636L429.363 8.12451C430.746 7.46826 432.48 7.10498 434.566 7.03467C436.957 7.01123 438.738 7.62061 439.91 8.86279C440.777 9.80029 441.199 11.1831 441.176 13.0112V21.4136C441.105 22.4214 441.422 22.9136 442.125 22.8901C442.523 22.8667 442.887 22.7612 443.215 22.5737ZM438.363 18.4956V15.894L435.023 15.4722C431.93 15.6362 430.465 16.8901 430.629 19.2339C430.652 20.5229 431.016 21.4839 431.719 22.1167C432.398 22.7495 433.254 23.0659 434.285 23.0659C435.738 23.0425 436.793 22.6206 437.449 21.8003C438.082 20.98 438.387 19.8784 438.363 18.4956V18.4604V18.4956ZM455.555 22.2573L455.52 24.2964C454.582 24.7651 453.469 25.0112 452.18 25.0347C450.633 25.0112 449.461 24.5425 448.664 23.6284C448.008 22.855 447.703 21.5894 447.75 19.8315V9.42529H445.184V7.31592H447.75V2.78076L450.562 1.83154V7.31592H454.746V9.42529H450.562V19.7612C450.562 20.8628 450.738 21.6714 451.09 22.187C451.441 22.7261 452.051 22.9839 452.918 22.9604C453.996 22.937 454.875 22.7026 455.555 22.2573V22.2222V22.2573ZM471.34 8.0542C471.27 11.687 469.266 13.7847 465.328 14.3472L464.977 18.0737H463.5L463.184 12.9058L463.57 12.8706C466.875 12.6597 468.527 11.0894 468.527 8.15967C468.434 5.46436 467.121 4.05811 464.59 3.94092C462.363 3.96436 460.969 5.0542 460.406 7.21045L458.121 6.71826C458.473 5.10107 459.234 3.85889 460.406 2.9917C461.602 2.14795 463.02 1.72607 464.66 1.72607C466.77 1.74951 468.41 2.32373 469.582 3.44873C470.754 4.59717 471.34 6.13232 471.34 8.0542ZM466.031 23.1362C465.938 24.2144 465.363 24.8003 464.309 24.894C463.23 24.8003 462.645 24.2144 462.551 23.1362C462.645 22.0581 463.23 21.4839 464.309 21.4136C465.363 21.4839 465.938 22.0581 466.031 23.1362V23.1011V23.1362Z" fill="#3C3C3C"/>
</svg>
