<svg width="136" height="43" viewBox="0 0 136 43" fill="none" xmlns="http://www.w3.org/2000/svg">
<rect x="0.5" width="135" height="43" rx="6" fill="#500878"/>
<path d="M42.0344 26V15.216H44.0024V24.352H48.4344V26H42.0344ZM55.8931 21.312V24.128C55.8931 24.832 55.9251 25.52 56.0051 26H54.2291L54.1011 25.136H54.0531C53.5731 25.744 52.7571 26.176 51.7491 26.176C50.1811 26.176 49.3011 25.04 49.3011 23.856C49.3011 21.888 51.0451 20.896 53.9251 20.912V20.784C53.9251 20.272 53.7171 19.424 52.3411 19.424C51.5731 19.424 50.7731 19.664 50.2451 20L49.8611 18.72C50.4371 18.368 51.4451 18.032 52.6771 18.032C55.1731 18.032 55.8931 19.616 55.8931 21.312ZM53.9731 23.264V22.192C52.5811 22.16 51.2531 22.464 51.2531 23.648C51.2531 24.416 51.7491 24.768 52.3731 24.768C53.1571 24.768 53.7331 24.256 53.9091 23.696C53.9571 23.552 53.9731 23.392 53.9731 23.264ZM59.9541 26H57.9701V18.208H59.9541V26ZM58.9621 14.96C59.6341 14.96 60.0501 15.424 60.0661 16.032C60.0661 16.624 59.6341 17.088 58.9461 17.088C58.2901 17.088 57.8581 16.624 57.8581 16.032C57.8581 15.424 58.3061 14.96 58.9621 14.96ZM62.0638 26V20.528C62.0638 19.632 62.0478 18.88 61.9998 18.208H63.7278L63.8238 19.376H63.8718C64.2078 18.768 65.0558 18.032 66.3518 18.032C67.7118 18.032 69.1198 18.912 69.1198 21.376V26H67.1518V21.6C67.1518 20.48 66.7358 19.632 65.6638 19.632C64.8798 19.632 64.3358 20.192 64.1278 20.784C64.0638 20.96 64.0478 21.2 64.0478 21.424V26H62.0638ZM71.2201 26V20.528C71.2201 19.632 71.2041 18.88 71.1561 18.208H72.8841L72.9801 19.376H73.0281C73.3641 18.768 74.2121 18.032 75.5081 18.032C76.8681 18.032 78.2761 18.912 78.2761 21.376V26H76.3081V21.6C76.3081 20.48 75.8921 19.632 74.8201 19.632C74.0361 19.632 73.4921 20.192 73.2841 20.784C73.2201 20.96 73.2041 21.2 73.2041 21.424V26H71.2201ZM79.1983 18.208H81.3583L82.7663 22.384C82.9263 22.864 83.0863 23.456 83.1983 23.904H83.2463C83.3743 23.456 83.5183 22.88 83.6623 22.368L84.8783 18.208H86.9903L85.0383 23.52C83.9663 26.432 83.2463 27.728 82.3183 28.528C81.5503 29.216 80.7503 29.472 80.2543 29.536L79.8063 27.872C80.1423 27.792 80.5583 27.616 80.9583 27.328C81.3263 27.088 81.7583 26.624 82.0303 26.096C82.1103 25.952 82.1583 25.84 82.1583 25.744C82.1583 25.664 82.1423 25.552 82.0463 25.36L79.1983 18.208ZM94.0806 21.312V24.128C94.0806 24.832 94.1126 25.52 94.1926 26H92.4166L92.2886 25.136H92.2406C91.7606 25.744 90.9446 26.176 89.9366 26.176C88.3686 26.176 87.4886 25.04 87.4886 23.856C87.4886 21.888 89.2326 20.896 92.1126 20.912V20.784C92.1126 20.272 91.9046 19.424 90.5286 19.424C89.7606 19.424 88.9606 19.664 88.4326 20L88.0486 18.72C88.6246 18.368 89.6326 18.032 90.8646 18.032C93.3606 18.032 94.0806 19.616 94.0806 21.312ZM92.1606 23.264V22.192C90.7686 22.16 89.4406 22.464 89.4406 23.648C89.4406 24.416 89.9366 24.768 90.5606 24.768C91.3446 24.768 91.9206 24.256 92.0966 23.696C92.1446 23.552 92.1606 23.392 92.1606 23.264Z" fill="white"/>
</svg>
