<svg width="305" height="34" viewBox="0 0 305 34" fill="none" xmlns="http://www.w3.org/2000/svg">
<path d="M20.5023 4.94384C20.423 4.92494 20.35 4.88587 20.2904 4.83032C20.2308 4.77477 20.1864 4.70459 20.1615 4.6264C20.1366 4.54822 20.132 4.46461 20.1481 4.38348C20.1642 4.30235 20.2005 4.22639 20.2535 4.16276L22.0411 2.04006C22.1936 1.86053 22.4089 1.74548 22.6432 1.71818C22.8776 1.69089 23.1136 1.75338 23.3035 1.89303C27.3333 4.81519 30.1038 8.44186 31.615 12.773C34.3148 20.5195 30.8041 28.9736 22.336 30.0487C20.6528 30.257 18.6256 30.3887 16.2544 30.4438C15.3882 30.4683 15.2623 30.1743 15.8766 29.5617L17.3417 28.0822C17.9337 27.4856 18.7336 27.1344 19.5808 27.099C24.2987 26.9213 27.7787 24.4892 30.0209 19.8028C33.421 12.6995 27.0814 6.56114 20.5023 4.94384Z" fill="#64B92E"/>
<path d="M109.219 18.9022C110.878 19.2422 112.085 19.0768 113.163 17.6065C114.576 15.6584 115.958 13.7409 117.31 11.8541C117.452 11.6551 117.64 11.4929 117.858 11.381C118.076 11.2691 118.318 11.2107 118.563 11.2108L119.272 11.2016C119.997 11.1955 120.145 11.4834 119.715 12.0654L114.223 19.5179C114.172 19.5859 114.142 19.6676 114.137 19.7526C114.132 19.8376 114.152 19.9222 114.195 19.9957C115.768 22.728 117.356 25.4725 118.959 28.2292C119.475 29.1022 120.093 29.4054 121.069 29.3227C121.376 29.2982 121.579 29.4299 121.677 29.7179C121.782 30.018 121.77 30.2876 121.641 30.5265C121.53 30.7287 121.337 30.8726 121.06 30.9584C117.319 32.0703 114.886 25.5276 113.053 22.1092C112.279 20.6634 110.979 20.2775 109.155 20.9514C108.897 21.0494 108.771 21.2332 108.777 21.5027L108.879 30.2784C108.885 30.8052 108.621 31.0717 108.086 31.0779H107.331C106.821 31.0779 106.566 30.8206 106.566 30.306L106.575 5.75246C106.575 5.42165 106.415 5.22561 106.096 5.16435L104.797 4.92543C104.385 4.85192 104.176 4.60687 104.17 4.19029V3.88705C104.169 3.80542 104.184 3.72436 104.214 3.64859C104.244 3.57282 104.288 3.50385 104.345 3.4457C104.401 3.38755 104.469 3.34138 104.543 3.30988C104.618 3.27837 104.697 3.26216 104.778 3.26219L108.574 3.23462C108.64 3.23462 108.704 3.26076 108.75 3.30729C108.797 3.35382 108.823 3.41692 108.823 3.48273L108.796 18.3784C108.796 18.6663 108.937 18.8409 109.219 18.9022Z" fill="white"/>
<path d="M258.006 6.22105L256.836 6.20267C256.744 6.2027 256.654 6.18435 256.569 6.14868C256.485 6.11302 256.408 6.06076 256.344 5.99493C256.28 5.9291 256.229 5.85102 256.195 5.76522C256.16 5.67941 256.143 5.5876 256.145 5.49511L256.172 3.78592C256.175 3.63641 256.236 3.49385 256.343 3.38898C256.45 3.28412 256.594 3.22536 256.744 3.22538L262.106 3.21619C262.383 3.21619 262.521 3.35402 262.521 3.6297L262.503 27.9351C262.503 27.9963 262.515 28.0568 262.54 28.1128C262.564 28.1689 262.6 28.2193 262.645 28.2607C262.69 28.3022 262.743 28.3339 262.801 28.3538C262.859 28.3737 262.921 28.3813 262.982 28.3762L264.65 28.2659C264.709 28.262 264.769 28.2706 264.825 28.2913C264.881 28.3119 264.932 28.3441 264.974 28.3857C265.017 28.4274 265.05 28.4775 265.072 28.5329C265.094 28.5882 265.104 28.6476 265.101 28.707C265.009 30.3304 264.171 31.1636 262.586 31.2065C257.895 31.3259 258.467 28.1189 258.494 24.3146C258.537 18.4519 258.531 12.58 258.476 6.69889C258.476 6.38033 258.319 6.22105 258.006 6.22105Z" fill="white"/>
<path d="M56.4112 17.7535C62.4743 20.1979 61.4607 30.1498 55.0382 30.5449C51.3831 30.7716 47.7649 30.9216 44.1835 30.9952C44.1271 30.9964 44.071 30.9864 44.0185 30.9657C43.966 30.945 43.9182 30.914 43.8778 30.8746C43.8375 30.8353 43.8054 30.7883 43.7836 30.7364C43.7617 30.6845 43.7504 30.6287 43.7504 30.5725L43.7781 7.82921C43.7781 7.52903 43.6276 7.35137 43.3266 7.29624L42.1471 7.09408C41.9863 7.0655 41.8398 6.98381 41.7311 6.86214C41.6225 6.74046 41.558 6.58588 41.5482 6.42326L41.5205 6.11083C41.496 5.66363 41.7079 5.42471 42.1563 5.39408C45.5657 5.14597 54.3195 4.54867 56.9548 7.03894C59.2032 9.16164 59.3782 12.9843 57.8486 15.5573C57.6828 15.8452 57.4708 16.0934 57.2128 16.3016L56.3098 17.0368C55.9412 17.337 55.975 17.5759 56.4112 17.7535Z" fill="white"/>
<path d="M134.209 14.4914L134.403 30.6C134.403 30.8512 134.277 30.9799 134.025 30.986L131.132 31.0136C130.855 31.0197 130.717 30.8849 130.717 30.6092L130.652 5.84437C130.652 5.69815 130.711 5.55791 130.814 5.45451C130.918 5.35111 131.059 5.29302 131.205 5.29302L134.329 5.28383C134.667 5.28383 134.903 5.44005 135.039 5.75248L143.359 25.0406C143.623 25.6532 143.814 25.6287 143.931 24.9671C144.069 24.2044 144.133 23.3406 144.447 22.6055C146.781 17.0062 149.091 11.3977 151.376 5.78005C151.433 5.63891 151.531 5.51799 151.657 5.43284C151.784 5.34769 151.933 5.3022 152.085 5.30221L154.923 5.28383C155.317 5.27771 155.513 5.47068 155.513 5.86275L155.532 30.4071C155.532 30.5639 155.471 30.7145 155.362 30.8262C155.254 30.938 155.106 31.002 154.951 31.0044L152.251 31.0228C151.913 31.0289 151.747 30.8665 151.754 30.5357L151.892 13.8941C151.898 13.8573 151.88 13.839 151.837 13.839C151.751 13.839 151.668 13.839 151.588 13.839C151.514 13.839 151.462 13.8727 151.431 13.94C149.478 19.0554 147.46 24.1431 145.377 29.2033C145.076 29.9323 144.708 30.4745 144.271 30.8298C144.072 30.9914 143.838 31.1049 143.587 31.1614C143.336 31.2178 143.076 31.2157 142.826 31.1552C142.576 31.0947 142.344 30.9775 142.147 30.8126C141.95 30.6478 141.794 30.4398 141.691 30.2049L134.854 14.3536C134.412 13.3305 134.197 13.3764 134.209 14.4914Z" fill="white"/>
<path d="M290.358 10.9535L290.238 6.91025C290.233 6.69638 290.299 6.48734 290.424 6.316C290.549 6.14466 290.727 6.02075 290.929 5.96377L293.694 5.19187C293.778 5.16896 293.867 5.16568 293.953 5.18232C294.038 5.19896 294.119 5.23504 294.188 5.28769C294.257 5.34035 294.312 5.40812 294.35 5.48561C294.387 5.5631 294.405 5.64817 294.403 5.73404L294.348 10.7238C294.342 11.1832 294.566 11.4068 295.021 11.3946L298.052 11.3119C298.193 11.3081 298.333 11.3328 298.464 11.3845C298.594 11.4362 298.713 11.5137 298.813 11.6125C298.913 11.7112 298.992 11.8291 299.045 11.9591C299.098 12.0891 299.124 12.2284 299.121 12.3686L299.112 13.2875C299.1 13.9308 298.771 14.2494 298.126 14.2432L294.846 14.234C294.52 14.234 294.36 14.3964 294.366 14.7211L294.403 26.6578C294.405 27.093 294.567 27.5127 294.859 27.8377C295.151 28.1627 295.553 28.3706 295.988 28.4221C296.965 28.5324 297.896 28.3762 298.78 27.9535C299.628 27.5492 299.984 27.8095 299.849 28.7346L299.748 29.4697C299.619 30.3519 299.115 30.8726 298.237 31.0319C294.21 31.7762 290.165 30.9767 290.22 26.1892C290.263 22.3481 290.343 18.5162 290.46 14.6935C290.461 14.6348 290.45 14.5765 290.429 14.5219C290.407 14.4673 290.374 14.4176 290.333 14.3756C290.292 14.3337 290.243 14.3004 290.189 14.2777C290.134 14.2549 290.076 14.2432 290.017 14.2432L287.935 14.2524C287.456 14.2524 287.222 14.0135 287.234 13.5357L287.29 11.9919C287.293 11.887 287.318 11.784 287.363 11.6893C287.408 11.5946 287.473 11.5104 287.553 11.4421C287.633 11.3738 287.726 11.3228 287.826 11.2925C287.927 11.2621 288.033 11.2531 288.137 11.2659L289.805 11.4589C290.186 11.5018 290.37 11.3333 290.358 10.9535Z" fill="white"/>
<path d="M15.3882 16.3752C14.4115 12.8925 13.8954 8.28871 16.9639 6.23952C18.0328 5.53501 18.3522 5.78312 17.9222 6.98384C16.841 10.0469 16.7366 13.1651 17.6089 16.3384C17.6703 16.559 17.8178 16.6907 18.0512 16.7336C20.447 17.1195 23.285 16.4487 24.4553 14.1974C25.0757 13.0089 24.9406 11.8572 24.0498 10.7422C23.9736 10.6494 23.9322 10.5338 23.9322 10.4144C23.9323 10.2951 23.974 10.1792 24.0503 10.0859C24.1266 9.99268 24.233 9.92765 24.3519 9.90162C24.4708 9.87559 24.595 9.8901 24.7041 9.94276C26.9063 11.0455 29.3113 14.0136 27.8186 16.6876C25.9664 20.0233 22.124 19.2422 18.9174 19.279C18.5979 19.2851 18.4228 19.4474 18.3921 19.766C18.2816 21.0801 18.558 22.5779 18.1894 23.7174C17.397 26.1433 14.9735 29.672 11.9696 29.6076C7.86916 29.5157 2.91176 26.0514 3.7595 21.3833C4.28165 18.5101 5.63926 16.1271 7.83231 14.2341C7.90745 14.1666 8.00583 14.1301 8.10812 14.1318C8.21041 14.1335 8.30923 14.1732 8.38518 14.2433L8.55104 14.4087C8.62475 14.4761 8.62475 14.5465 8.55104 14.6201C3.91614 19.132 7.16886 23.4325 11.7669 25.6655C15.9779 27.7238 18.0143 23.6714 16.8902 20.2347C16.8042 19.9835 16.6444 19.7936 16.411 19.6649L13.2136 17.873C13.1336 17.8298 13.0669 17.766 13.0202 17.6883C12.9735 17.6105 12.9484 17.5214 12.9475 17.43C12.9465 17.3387 12.9698 17.2483 13.0149 17.1679C13.06 17.0876 13.1254 17.0202 13.2044 16.9725C13.7327 16.6601 14.307 16.608 14.9275 16.8163C15.3575 16.9633 15.5111 16.8163 15.3882 16.3752Z" fill="#64B92E"/>
<path d="M46.3029 7.66376C46.3029 7.52729 46.3572 7.3964 46.454 7.29989C46.5508 7.20339 46.682 7.14917 46.8189 7.14917H51.9421C53.164 7.14917 54.3359 7.59936 55.1999 8.40069C56.064 9.20203 56.5494 10.2889 56.5494 11.4221V12.6351C56.5494 13.7684 56.064 14.8552 55.1999 15.6566C54.3359 16.4579 53.164 16.9081 51.9421 16.9081H46.8189C46.682 16.9081 46.5508 16.8539 46.454 16.7574C46.3572 16.6609 46.3029 16.53 46.3029 16.3935V7.66376Z" fill="#500878"/>
<path d="M11.813 13.3427C12.4593 13.3427 12.9832 12.8202 12.9832 12.1757C12.9832 11.5312 12.4593 11.0087 11.813 11.0087C11.1667 11.0087 10.6428 11.5312 10.6428 12.1757C10.6428 12.8202 11.1667 13.3427 11.813 13.3427Z" fill="#64B92E"/>
<path d="M76.4803 18.4151C76.8213 11.3762 70.7766 12.3595 66.3536 13.747C66.2837 13.7694 66.2096 13.7758 66.1369 13.7656C66.0641 13.7555 65.9946 13.7291 65.9335 13.6885C65.8724 13.6479 65.8213 13.594 65.784 13.531C65.7466 13.4679 65.724 13.3973 65.7178 13.3243L65.6902 12.9751C65.6472 12.4422 65.8775 12.0868 66.3813 11.9092C71.3479 10.1449 78.443 10.0254 78.6458 17.2297C78.744 20.9115 78.7686 24.5995 78.7195 28.2935C78.717 28.455 78.7584 28.6144 78.8395 28.755C78.9205 28.8957 79.0382 29.0124 79.1802 29.093C79.4321 29.2339 79.6993 29.3227 79.9819 29.3595C80.2644 29.3901 80.4948 29.5157 80.6729 29.7362C81.0968 30.2569 81.02 30.6337 80.4426 30.8665C78.6304 31.6077 77.3864 31.133 76.7107 29.4422C76.6816 29.3663 76.6327 29.2995 76.5693 29.2486C76.5058 29.1977 76.4299 29.1645 76.3494 29.1523C76.2688 29.1402 76.1865 29.1495 76.1108 29.1795C76.035 29.2094 75.9686 29.2588 75.9183 29.3227C71.0346 35.2681 60.1983 28.1832 65.5519 21.0984C68.003 17.8638 72.3799 18.7 76.038 18.8195C76.3145 18.8256 76.4619 18.6908 76.4803 18.4151Z" fill="white"/>
<path d="M87.9063 13.3427L88.7356 12.4238C88.8813 12.2663 89.0571 12.1411 89.2516 12.0562C93.9602 9.86921 100.549 11.1833 100.374 17.4595C100.257 21.7907 100.223 26.0759 100.272 30.3152C100.272 30.7991 100.03 31.0411 99.5442 31.0411H98.8163C98.3248 31.0472 98.0822 30.8052 98.0883 30.3152C98.1313 26.0759 98.0791 21.8642 97.9317 17.68C97.8027 13.8941 95.7878 12.3503 91.887 13.0487C89.2086 13.5265 87.7712 15.153 87.5746 17.9281C87.4272 19.913 87.4149 24.0267 87.5377 30.2692C87.5428 30.4709 87.4685 30.6665 87.3307 30.8142C87.1929 30.9619 87.0026 31.0499 86.8006 31.0595L86.1095 31.1054C85.532 31.1361 85.2433 30.8604 85.2433 30.2784L85.2986 13.7562C85.2986 13.3887 85.1143 13.1988 84.7457 13.1865L83.5294 13.1589C83.1301 13.1467 82.9274 12.9415 82.9213 12.5433L82.9121 12.1941C82.9094 12.0046 82.9802 11.8217 83.1094 11.6843C83.2385 11.547 83.4157 11.4661 83.6031 11.4589L86.3122 11.3487C86.4563 11.3437 86.5975 11.3899 86.7106 11.4791C86.8236 11.5683 86.9013 11.6947 86.9296 11.8357L87.2152 13.1589C87.232 13.2302 87.2678 13.2957 87.3189 13.3483C87.3701 13.4008 87.4346 13.4386 87.5055 13.4574C87.5765 13.4763 87.6512 13.4756 87.7218 13.4554C87.7924 13.4352 87.8562 13.3963 87.9063 13.3427Z" fill="white"/>
<path d="M192.731 18.3049C193.904 18.6296 194.325 18.2069 193.993 17.0368L193.781 16.2741C193.394 14.8957 192.491 14.1085 191.072 13.9125C188.854 13.6 186.744 13.9523 184.742 14.9692C184.152 15.2694 183.872 15.0917 183.903 14.4362L183.958 13.113C183.974 12.7954 184.089 12.491 184.288 12.2434C184.487 11.9959 184.758 11.8178 185.064 11.7346C188.768 10.7422 195.062 10.1725 197.163 13.9217C198.701 16.6508 197.918 24.4892 197.937 27.8065C197.936 27.8838 197.952 27.9603 197.984 28.0311C198.015 28.1019 198.062 28.1653 198.12 28.2173C198.178 28.2693 198.247 28.3087 198.322 28.3329C198.396 28.3571 198.476 28.3656 198.554 28.3579L199.697 28.2476C200.096 28.2047 200.345 28.3762 200.443 28.7622C200.689 29.7669 200.332 30.4683 199.374 30.8665C197.525 31.6384 195.959 31.3107 194.675 29.8833C194.466 29.6566 194.236 29.629 193.984 29.8006C192.343 30.891 190.577 31.4056 188.685 31.3444C178.402 30.9952 180.724 15.0335 192.731 18.3049Z" fill="white"/>
<path d="M206.921 13.1037C206.931 13.1456 206.951 13.1844 206.979 13.2165C207.008 13.2485 207.044 13.2727 207.084 13.2866C207.124 13.3005 207.166 13.3037 207.207 13.2958C207.248 13.2879 207.286 13.2692 207.317 13.2416C210.432 10.6043 216.117 9.66697 218.9 13.4621C218.938 13.5136 218.987 13.5562 219.043 13.5869C219.099 13.6177 219.161 13.6359 219.225 13.6403C219.289 13.6446 219.354 13.6351 219.413 13.6122C219.473 13.5894 219.528 13.5539 219.572 13.5081C220.291 12.7454 220.789 11.9459 221.802 11.5875C226.621 9.87832 232.381 11.4772 232.381 17.4594C232.381 21.9008 232.393 26.1891 232.417 30.3243C232.417 30.7837 232.187 31.0165 231.726 31.0226L228.999 31.0318C228.538 31.0318 228.308 30.8021 228.308 30.3426V17.1194C228.308 16.7317 228.231 16.3478 228.082 15.9898C227.932 15.6319 227.713 15.3069 227.438 15.0336C227.162 14.7603 226.835 14.5441 226.475 14.3974C226.115 14.2507 225.729 14.1764 225.341 14.1789H224.272C221.557 14.1911 220.205 15.5481 220.217 18.2497L220.254 30.3151C220.254 30.7868 220.018 31.0226 219.545 31.0226H216.845C216.674 31.0226 216.51 30.9539 216.389 30.8316C216.268 30.7092 216.2 30.5433 216.2 30.3702L216.264 17.5605C216.283 14.8527 214.95 13.698 212.265 14.0962L211.141 14.2616C210.297 14.3831 209.524 14.8049 208.966 15.4496C208.407 16.0943 208.1 16.9188 208.1 17.7718L208.11 30.3886C208.11 30.7929 207.904 30.9981 207.492 31.0043L204.792 31.0318C204.319 31.0318 204.086 30.796 204.092 30.3243L204.175 14.8956C204.175 14.5097 203.981 14.3075 203.594 14.2891L202.47 14.2432C201.874 14.2126 201.61 13.9001 201.678 13.3059L201.816 12.1205C201.843 11.8888 201.956 11.6754 202.133 11.5211C202.31 11.3667 202.538 11.2824 202.774 11.2843L206.045 11.2935C206.402 11.2935 206.614 11.4681 206.681 11.8172L206.921 13.1037Z" fill="white"/>
<path d="M247.529 18.4335C248.469 18.7215 248.819 18.3907 248.58 17.4411L248.239 16.0811C248.119 15.6087 247.873 15.1773 247.528 14.8327C247.182 14.4882 246.75 14.2432 246.276 14.1238C243.892 13.5173 241.604 13.7777 239.411 14.9049C238.748 15.248 238.422 15.0489 238.434 14.3076L238.453 13.1589C238.465 12.3871 238.843 11.9 239.586 11.6979C244.958 10.2644 252.698 10.2368 252.56 17.9189C252.499 21.2148 252.474 24.5168 252.487 27.8249C252.493 28.1496 252.659 28.3089 252.984 28.3027L254.385 28.2568C254.686 28.2507 254.873 28.3946 254.947 28.6887C255.186 29.6321 254.953 30.2937 254.247 30.6735C252.367 31.6905 250.671 31.4454 249.16 29.9384C248.939 29.7179 248.696 29.6903 248.432 29.8557C238.093 36.5087 232.169 21.4476 240.729 18.553C243.008 17.7811 245.275 17.7413 247.529 18.4335Z" fill="white"/>
<path d="M279.844 18.1303C279.439 12.8373 274.113 12.9935 270.427 14.9508C269.868 15.251 269.586 15.0856 269.579 14.4546L269.57 13.113C269.567 12.8277 269.654 12.5486 269.82 12.3158C269.985 12.0831 270.221 11.9085 270.492 11.8173C273.818 10.733 280.333 10.1449 282.673 13.6919C284.378 16.2925 283.576 24.6362 283.595 27.8892C283.595 28.3426 283.819 28.5294 284.267 28.4498L285.438 28.2384C285.757 28.1833 285.954 28.3119 286.027 28.6244C286.279 29.6413 286.064 30.3366 285.382 30.7103C283.546 31.7027 281.847 31.4209 280.287 29.8649C280.072 29.6505 279.844 29.6321 279.605 29.8098C275.495 32.7687 268.603 31.4638 267.912 25.9687C266.999 18.7644 273.597 17.0184 279.31 18.5714C279.697 18.6816 279.875 18.5346 279.844 18.1303Z" fill="white"/>
<path d="M177.84 28.3211L179.001 28.2843C179.283 28.2721 179.471 28.4007 179.563 28.6703C179.944 29.7607 179.584 30.5051 178.485 30.9033C176.544 31.6078 174.977 31.2218 173.785 29.7454C173.589 29.5004 173.365 29.4728 173.113 29.6627C168.994 32.7227 161.327 31.9141 161.069 25.4541C160.879 20.7676 160.799 16.1914 160.83 11.7254C160.83 11.4191 160.983 11.266 161.291 11.266H164.248C164.427 11.266 164.598 11.3376 164.724 11.4651C164.85 11.5927 164.921 11.7656 164.921 11.946L164.847 25.0773C164.842 25.9092 165.169 26.7092 165.754 27.3017C166.34 27.8943 167.137 28.2311 167.971 28.2384H168.966C171.817 28.2629 173.239 26.8539 173.233 24.0114L173.205 12.093C173.199 11.5539 173.466 11.2843 174.007 11.2843L176.43 11.266C177.02 11.2598 177.315 11.5539 177.315 12.1481L177.287 27.7881C177.287 28.1557 177.471 28.3333 177.84 28.3211Z" fill="white"/>
<path d="M46.266 18.9756C46.266 18.8879 46.3009 18.8037 46.3632 18.7417C46.4254 18.6797 46.5097 18.6448 46.5977 18.6448L52.9096 18.6356C53.5232 18.6344 54.1309 18.7511 54.6982 18.979C55.2655 19.2069 55.7812 19.5417 56.2158 19.964C56.6505 20.3864 56.9956 20.8882 57.2315 21.4407C57.4674 21.9933 57.5894 22.5857 57.5906 23.1843V24.5627C57.593 25.7714 57.1031 26.9317 56.2288 27.7882C55.3544 28.6447 54.1671 29.1272 52.9281 29.1297L46.6161 29.1389C46.5282 29.1389 46.4438 29.104 46.3816 29.042C46.3194 28.9799 46.2844 28.8958 46.2844 28.8081L46.266 18.9756Z" fill="#500878"/>
<path d="M66.5379 24.3881C66.7959 19.7384 72.6103 20.0325 75.992 20.6022C76.3299 20.6635 76.4865 20.8626 76.4619 21.1995C76.2592 24.5903 76.8029 28.6795 72.2509 29.4881C68.6388 30.1314 66.3444 27.8708 66.5379 24.3881Z" fill="#500878"/>
<path d="M191.431 28.4221C184.216 30.4529 183.921 18.0384 193.505 21.2729C193.627 21.3137 193.734 21.3901 193.811 21.4918C193.888 21.5936 193.933 21.716 193.938 21.8427C194.076 24.5535 194.288 27.6227 191.431 28.4221Z" fill="#500878"/>
<path d="M246.027 28.2383C239.153 30.6091 237.946 18.5621 247.898 21.1535C248.174 21.227 248.337 21.4046 248.386 21.6864C248.884 24.2226 248.736 27.3102 246.027 28.2383Z" fill="#500878"/>
<path d="M271.975 26.0146C270.335 21.0341 275.67 20.4459 279.015 21.0708C279.208 21.1065 279.383 21.2072 279.51 21.3561C279.638 21.505 279.71 21.693 279.715 21.8886C279.752 23.0097 279.697 24.1339 279.55 25.2611C279.006 29.3962 273.265 29.9292 271.975 26.0146Z" fill="#500878"/>
<path d="M21.0091 23.2486C21.6401 23.2486 22.1517 22.7385 22.1517 22.1092C22.1517 21.4799 21.6401 20.9697 21.0091 20.9697C20.378 20.9697 19.8665 21.4799 19.8665 22.1092C19.8665 22.7385 20.378 23.2486 21.0091 23.2486Z" fill="#64B92E"/>
<path d="M24.787 23.2946C25.4282 23.2946 25.948 22.7762 25.948 22.1367C25.948 21.4973 25.4282 20.9789 24.787 20.9789C24.1458 20.9789 23.626 21.4973 23.626 22.1367C23.626 22.7762 24.1458 23.2946 24.787 23.2946Z" fill="#64B92E"/>
</svg>
