<svg width="305" height="35" viewBox="0 0 305 35" fill="none" xmlns="http://www.w3.org/2000/svg">
<rect y="0.506836" width="34" height="34" rx="2" fill="white"/>
<path d="M23.75 20.8218V23.4739C23.75 23.8677 23.4456 24.1944 23.0529 24.2221C22.7248 24.2453 22.4572 24.2568 22.25 24.2568C15.6226 24.2568 10.25 18.8843 10.25 12.2568C10.25 12.0496 10.2616 11.782 10.2848 11.454C10.3125 11.0612 10.6392 10.7568 11.0329 10.7568H13.6851C13.8776 10.7568 14.0388 10.9027 14.0581 11.0942C14.0755 11.2661 14.0916 11.4042 14.1066 11.5084C14.2583 12.5679 14.5681 13.5764 15.0115 14.5091C15.0827 14.6588 15.0363 14.838 14.9014 14.9344L13.2827 16.0907C14.2681 18.3927 16.1142 20.2387 18.4162 21.2242L19.5703 19.6083C19.6679 19.4718 19.8492 19.4248 20.0007 19.4967C20.9334 19.9398 21.9418 20.2493 23.0012 20.4006C23.1047 20.4155 23.2419 20.4315 23.4126 20.4487C23.6042 20.4681 23.75 20.6293 23.75 20.8218Z" fill="#500878"/>
<path d="M50.6066 21.5068V10.7228H56.4146V11.8908H51.9986V15.4748H56.0786V16.6268H51.9986V21.5068H50.6066ZM63.0768 16.7548V19.6508C63.0768 20.3228 63.1088 20.9788 63.2048 21.5068H61.9248L61.8128 20.5308H61.7648C61.3328 21.1388 60.5008 21.6828 59.3968 21.6828C57.8288 21.6828 57.0288 20.5788 57.0288 19.4588C57.0288 17.5868 58.6928 16.5628 61.6848 16.5788V16.4188C61.6848 15.7788 61.5088 14.6268 59.9248 14.6268C59.2048 14.6268 58.4528 14.8508 57.9088 15.2028L57.5888 14.2748C58.2288 13.8588 59.1568 13.5868 60.1328 13.5868C62.5008 13.5868 63.0768 15.2028 63.0768 16.7548ZM61.7168 18.8988V17.5548C60.1808 17.5228 58.4368 17.7948 58.4368 19.2988C58.4368 20.2108 59.0448 20.6428 59.7648 20.6428C60.7728 20.6428 61.4128 20.0028 61.6368 19.3468C61.6848 19.2028 61.7168 19.0428 61.7168 18.8988ZM64.4435 13.7628H66.0115L67.1155 15.4268C67.4035 15.8588 67.6435 16.2588 67.8995 16.6908H67.9475C68.2035 16.2268 68.4595 15.8268 68.7155 15.4108L69.8035 13.7628H71.3235L68.6835 17.5068L71.4035 21.5068H69.8035L68.6675 19.7628C68.3635 19.3148 68.1075 18.8828 67.8355 18.4188H67.8035C67.5475 18.8988 67.2755 19.2988 66.9875 19.7628L65.8675 21.5068H64.3155L67.0675 17.5548L64.4435 13.7628ZM78.1044 10.4028H79.2084C78.0404 11.9708 77.1924 14.0508 77.1924 16.9468C77.1924 19.7948 78.0724 21.8428 79.2084 23.4428H78.1044C77.0964 22.1148 76.0084 20.0668 76.0084 16.9468C76.0244 13.7948 77.0964 11.7468 78.1044 10.4028ZM83.7233 10.9308C85.9153 10.9308 87.1633 12.8828 87.1633 16.1948C87.1633 19.7308 85.8513 21.6828 83.5473 21.6828C81.5153 21.6828 80.1393 19.7788 80.1073 16.3388C80.1073 12.8508 81.6113 10.9308 83.7233 10.9308ZM83.6432 12.0188C82.4113 12.0188 81.5153 13.5228 81.5153 16.3548C81.5153 19.0588 82.3473 20.5948 83.6273 20.5948C85.0673 20.5948 85.7553 18.9148 85.7553 16.2588C85.7553 13.6988 85.0993 12.0188 83.6432 12.0188ZM95.0944 21.5068H88.4544V20.6428L89.5584 19.5708C92.2144 17.0428 93.4144 15.6988 93.4304 14.1308C93.4304 13.0748 92.9184 12.0988 91.3664 12.0988C90.4224 12.0988 89.6384 12.5788 89.1584 12.9788L88.7104 11.9868C89.4304 11.3788 90.4544 10.9308 91.6544 10.9308C93.8944 10.9308 94.8384 12.4668 94.8384 13.9548C94.8384 15.8748 93.4464 17.4268 91.2544 19.5388L90.4224 20.3068V20.3388H95.0944V21.5068ZM99.7135 21.5068V12.4188H99.6815L97.8735 13.3948L97.6015 12.3228L99.8735 11.1068H101.074V21.5068H99.7135ZM105.549 23.4428H104.461C105.597 21.8588 106.477 19.7788 106.477 16.8988C106.477 14.0348 105.613 11.9868 104.461 10.4028H105.549C106.573 11.7148 107.645 13.7628 107.645 16.9148C107.645 20.0508 106.573 22.0828 105.549 23.4428ZM114.734 16.0828L114.718 16.0348C113.566 15.4908 113.07 14.5948 113.07 13.6988C113.07 12.0508 114.462 10.9308 116.286 10.9308C118.302 10.9308 119.31 12.1948 119.31 13.4908C119.31 14.3708 118.878 15.3148 117.598 15.9228V15.9708C118.894 16.4828 119.694 17.3948 119.694 18.6588C119.694 20.4668 118.142 21.6828 116.158 21.6828C113.982 21.6828 112.67 20.3868 112.67 18.8668C112.67 17.5548 113.454 16.6268 114.734 16.0828ZM116.19 20.6588C117.454 20.6588 118.27 19.8588 118.27 18.8028C118.27 17.5388 117.39 16.9308 115.982 16.5308C114.766 16.8828 114.11 17.6828 114.11 18.6748C114.062 19.7308 114.862 20.6588 116.19 20.6588ZM116.206 11.9388C115.038 11.9388 114.398 12.7068 114.398 13.6028C114.398 14.6428 115.182 15.2028 116.382 15.5228C117.278 15.2188 117.966 14.5788 117.966 13.6348C117.966 12.8028 117.47 11.9388 116.206 11.9388ZM124.473 10.9308C126.665 10.9308 127.913 12.8828 127.913 16.1948C127.913 19.7308 126.601 21.6828 124.297 21.6828C122.265 21.6828 120.889 19.7788 120.857 16.3388C120.857 12.8508 122.361 10.9308 124.473 10.9308ZM124.393 12.0188C123.161 12.0188 122.265 13.5228 122.265 16.3548C122.265 19.0588 123.097 20.5948 124.377 20.5948C125.817 20.5948 126.505 18.9148 126.505 16.2588C126.505 13.6988 125.849 12.0188 124.393 12.0188ZM135.14 10.9468V12.0988C134.852 12.0828 134.484 12.0988 134.084 12.1628C131.876 12.5308 130.708 14.1468 130.468 15.8588H130.516C131.012 15.2028 131.876 14.6588 133.028 14.6588C134.868 14.6588 136.164 15.9868 136.164 18.0188C136.164 19.9228 134.868 21.6828 132.708 21.6828C130.484 21.6828 129.028 19.9548 129.028 17.2508C129.028 15.2028 129.764 13.5868 130.788 12.5628C131.652 11.7148 132.804 11.1868 134.116 11.0268C134.532 10.9628 134.884 10.9468 135.14 10.9468ZM132.708 20.5948H132.724C133.924 20.5948 134.74 19.5868 134.74 18.0988C134.74 16.6108 133.892 15.7148 132.596 15.7148C131.748 15.7148 130.964 16.2428 130.58 16.9948C130.484 17.1548 130.42 17.3628 130.42 17.6188C130.452 19.3308 131.236 20.5948 132.708 20.5948ZM143.344 10.9468V12.0988C143.056 12.0828 142.688 12.0988 142.288 12.1628C140.08 12.5308 138.912 14.1468 138.672 15.8588H138.72C139.216 15.2028 140.08 14.6588 141.232 14.6588C143.072 14.6588 144.368 15.9868 144.368 18.0188C144.368 19.9228 143.072 21.6828 140.911 21.6828C138.688 21.6828 137.232 19.9548 137.232 17.2508C137.232 15.2028 137.968 13.5868 138.992 12.5628C139.856 11.7148 141.008 11.1868 142.32 11.0268C142.736 10.9628 143.088 10.9468 143.344 10.9468ZM140.911 20.5948H140.928C142.128 20.5948 142.944 19.5868 142.944 18.0988C142.944 16.6108 142.096 15.7148 140.799 15.7148C139.952 15.7148 139.168 16.2428 138.784 16.9948C138.688 17.1548 138.624 17.3628 138.624 17.6188C138.656 19.3308 139.44 20.5948 140.911 20.5948ZM151.547 10.9468V12.0988C151.259 12.0828 150.891 12.0988 150.491 12.1628C148.283 12.5308 147.115 14.1468 146.875 15.8588H146.923C147.419 15.2028 148.283 14.6588 149.435 14.6588C151.275 14.6588 152.571 15.9868 152.571 18.0188C152.571 19.9228 151.275 21.6828 149.115 21.6828C146.891 21.6828 145.435 19.9548 145.435 17.2508C145.435 15.2028 146.171 13.5868 147.195 12.5628C148.059 11.7148 149.211 11.1868 150.523 11.0268C150.939 10.9628 151.291 10.9468 151.547 10.9468ZM149.115 20.5948H149.131C150.331 20.5948 151.147 19.5868 151.147 18.0988C151.147 16.6108 150.299 15.7148 149.003 15.7148C148.155 15.7148 147.371 16.2428 146.987 16.9948C146.891 17.1548 146.827 17.3628 146.827 17.6188C146.859 19.3308 147.643 20.5948 149.115 20.5948ZM157.286 10.9308C159.478 10.9308 160.726 12.8828 160.726 16.1948C160.726 19.7308 159.414 21.6828 157.11 21.6828C155.078 21.6828 153.702 19.7788 153.67 16.3388C153.67 12.8508 155.174 10.9308 157.286 10.9308ZM157.206 12.0188C155.974 12.0188 155.078 13.5228 155.078 16.3548C155.078 19.0588 155.91 20.5948 157.19 20.5948C158.63 20.5948 159.318 18.9148 159.318 16.2588C159.318 13.6988 158.662 12.0188 157.206 12.0188ZM165.489 10.9308C167.681 10.9308 168.929 12.8828 168.929 16.1948C168.929 19.7308 167.617 21.6828 165.313 21.6828C163.281 21.6828 161.905 19.7788 161.873 16.3388C161.873 12.8508 163.377 10.9308 165.489 10.9308ZM165.409 12.0188C164.177 12.0188 163.281 13.5228 163.281 16.3548C163.281 19.0588 164.113 20.5948 165.393 20.5948C166.833 20.5948 167.521 18.9148 167.521 16.2588C167.521 13.6988 166.865 12.0188 165.409 12.0188ZM173.276 21.5068V12.4188H173.244L171.436 13.3948L171.164 12.3228L173.436 11.1068H174.636V21.5068H173.276Z" fill="white"/>
</svg>
