<svg width="305" height="35" viewBox="0 0 305 35" fill="none" xmlns="http://www.w3.org/2000/svg">
<rect y="0.506836" width="34" height="34" rx="2" fill="white"/>
<path d="M23.75 20.8218V23.4739C23.75 23.8677 23.4456 24.1944 23.0529 24.2221C22.7248 24.2453 22.4572 24.2568 22.25 24.2568C15.6226 24.2568 10.25 18.8843 10.25 12.2568C10.25 12.0496 10.2616 11.782 10.2848 11.454C10.3125 11.0612 10.6392 10.7568 11.0329 10.7568H13.6851C13.8776 10.7568 14.0388 10.9027 14.0581 11.0942C14.0755 11.2661 14.0916 11.4042 14.1066 11.5084C14.2583 12.5679 14.5681 13.5764 15.0115 14.5091C15.0827 14.6588 15.0363 14.838 14.9014 14.9344L13.2827 16.0907C14.2681 18.3927 16.1142 20.2387 18.4162 21.2242L19.5703 19.6083C19.6679 19.4718 19.8492 19.4248 20.0007 19.4967C20.9334 19.9398 21.9418 20.2493 23.0012 20.4006C23.1047 20.4155 23.2419 20.4315 23.4126 20.4487C23.6042 20.4681 23.75 20.6293 23.75 20.8218Z" fill="#500878"/>
<path d="M49.264 21.5068V11.9068H45.984V10.7228H53.968V11.9068H50.672V21.5068H49.264ZM60.2045 17.8908H54.7645C54.7965 19.7948 56.0125 20.5788 57.4205 20.5788C58.4285 20.5788 59.0365 20.4028 59.5645 20.1788L59.8045 21.1868C59.3085 21.4108 58.4605 21.6828 57.2285 21.6828C54.8445 21.6828 53.4205 20.0988 53.4205 17.7628C53.4205 15.4268 54.7965 13.5868 57.0525 13.5868C59.5805 13.5868 60.2525 15.8108 60.2525 17.2348C60.2525 17.5228 60.2205 17.7468 60.2045 17.8908ZM54.7805 16.8828H58.8925C58.9085 15.9868 58.5245 14.5948 56.9405 14.5948C55.5165 14.5948 54.8925 15.9068 54.7805 16.8828ZM61.9961 21.5068V10.1468H63.4041V21.5068H61.9961ZM65.7774 24.6748V16.2908C65.7774 15.2988 65.7454 14.4988 65.7134 13.7628H66.9774L67.0414 15.0908H67.0734C67.6494 14.1468 68.5614 13.5868 69.8254 13.5868C71.6974 13.5868 73.1054 15.1708 73.1054 17.5228C73.1054 20.3068 71.4094 21.6828 69.5854 21.6828C68.5614 21.6828 67.6654 21.2348 67.2014 20.4668H67.1694V24.6748H65.7774ZM67.1694 17.0268V18.3548C67.1694 18.5628 67.2014 18.7548 67.2334 18.9308C67.4894 19.9068 68.3374 20.5788 69.3454 20.5788C70.8334 20.5788 71.6974 19.3628 71.6974 17.5868C71.6974 16.0348 70.8814 14.7068 69.3934 14.7068C68.4334 14.7068 67.5374 15.3948 67.2654 16.4508C67.2174 16.6268 67.1694 16.8348 67.1694 17.0268ZM80.2294 10.4028H81.3334C80.1654 11.9708 79.3174 14.0508 79.3174 16.9468C79.3174 19.7948 80.1974 21.8428 81.3334 23.4428H80.2294C79.2214 22.1148 78.1334 20.0668 78.1334 16.9468C78.1494 13.7948 79.2214 11.7468 80.2294 10.4028ZM85.8483 10.9308C88.0403 10.9308 89.2883 12.8828 89.2883 16.1948C89.2883 19.7308 87.9763 21.6828 85.6723 21.6828C83.6403 21.6828 82.2643 19.7788 82.2323 16.3388C82.2323 12.8508 83.7363 10.9308 85.8483 10.9308ZM85.7682 12.0188C84.5363 12.0188 83.6403 13.5228 83.6403 16.3548C83.6403 19.0588 84.4723 20.5948 85.7523 20.5948C87.1923 20.5948 87.8803 18.9148 87.8803 16.2588C87.8803 13.6988 87.2243 12.0188 85.7682 12.0188ZM97.2194 21.5068H90.5794V20.6428L91.6834 19.5708C94.3394 17.0428 95.5394 15.6988 95.5554 14.1308C95.5554 13.0748 95.0434 12.0988 93.4914 12.0988C92.5474 12.0988 91.7634 12.5788 91.2834 12.9788L90.8354 11.9868C91.5554 11.3788 92.5794 10.9308 93.7794 10.9308C96.0194 10.9308 96.9634 12.4668 96.9634 13.9548C96.9634 15.8748 95.5714 17.4268 93.3794 19.5388L92.5474 20.3068V20.3388H97.2194V21.5068ZM101.839 21.5068V12.4188H101.807L99.9985 13.3948L99.7265 12.3228L101.999 11.1068H103.199V21.5068H101.839ZM107.674 23.4428H106.586C107.722 21.8588 108.602 19.7788 108.602 16.8988C108.602 14.0348 107.738 11.9868 106.586 10.4028H107.674C108.698 11.7148 109.77 13.7628 109.77 16.9148C109.77 20.0508 108.698 22.0828 107.674 23.4428ZM116.859 16.0828L116.843 16.0348C115.691 15.4908 115.195 14.5948 115.195 13.6988C115.195 12.0508 116.587 10.9308 118.411 10.9308C120.427 10.9308 121.435 12.1948 121.435 13.4908C121.435 14.3708 121.003 15.3148 119.723 15.9228V15.9708C121.019 16.4828 121.819 17.3948 121.819 18.6588C121.819 20.4668 120.267 21.6828 118.283 21.6828C116.107 21.6828 114.795 20.3868 114.795 18.8668C114.795 17.5548 115.579 16.6268 116.859 16.0828ZM118.315 20.6588C119.579 20.6588 120.395 19.8588 120.395 18.8028C120.395 17.5388 119.515 16.9308 118.107 16.5308C116.891 16.8828 116.235 17.6828 116.235 18.6748C116.187 19.7308 116.987 20.6588 118.315 20.6588ZM118.331 11.9388C117.163 11.9388 116.523 12.7068 116.523 13.6028C116.523 14.6428 117.307 15.2028 118.507 15.5228C119.403 15.2188 120.091 14.5788 120.091 13.6348C120.091 12.8028 119.595 11.9388 118.331 11.9388ZM126.598 10.9308C128.79 10.9308 130.038 12.8828 130.038 16.1948C130.038 19.7308 128.726 21.6828 126.422 21.6828C124.39 21.6828 123.014 19.7788 122.982 16.3388C122.982 12.8508 124.486 10.9308 126.598 10.9308ZM126.518 12.0188C125.286 12.0188 124.39 13.5228 124.39 16.3548C124.39 19.0588 125.222 20.5948 126.502 20.5948C127.942 20.5948 128.63 18.9148 128.63 16.2588C128.63 13.6988 127.974 12.0188 126.518 12.0188ZM137.265 10.9468V12.0988C136.977 12.0828 136.609 12.0988 136.209 12.1628C134.001 12.5308 132.833 14.1468 132.593 15.8588H132.641C133.137 15.2028 134.001 14.6588 135.153 14.6588C136.993 14.6588 138.289 15.9868 138.289 18.0188C138.289 19.9228 136.993 21.6828 134.833 21.6828C132.609 21.6828 131.153 19.9548 131.153 17.2508C131.153 15.2028 131.889 13.5868 132.913 12.5628C133.777 11.7148 134.929 11.1868 136.241 11.0268C136.657 10.9628 137.009 10.9468 137.265 10.9468ZM134.833 20.5948H134.849C136.049 20.5948 136.865 19.5868 136.865 18.0988C136.865 16.6108 136.017 15.7148 134.721 15.7148C133.873 15.7148 133.089 16.2428 132.705 16.9948C132.609 17.1548 132.545 17.3628 132.545 17.6188C132.577 19.3308 133.361 20.5948 134.833 20.5948ZM145.469 10.9468V12.0988C145.181 12.0828 144.813 12.0988 144.413 12.1628C142.205 12.5308 141.037 14.1468 140.797 15.8588H140.845C141.341 15.2028 142.205 14.6588 143.357 14.6588C145.197 14.6588 146.493 15.9868 146.493 18.0188C146.493 19.9228 145.197 21.6828 143.036 21.6828C140.812 21.6828 139.357 19.9548 139.357 17.2508C139.357 15.2028 140.093 13.5868 141.117 12.5628C141.981 11.7148 143.133 11.1868 144.445 11.0268C144.861 10.9628 145.213 10.9468 145.469 10.9468ZM143.036 20.5948H143.053C144.253 20.5948 145.069 19.5868 145.069 18.0988C145.069 16.6108 144.221 15.7148 142.924 15.7148C142.077 15.7148 141.293 16.2428 140.909 16.9948C140.812 17.1548 140.749 17.3628 140.749 17.6188C140.781 19.3308 141.565 20.5948 143.036 20.5948ZM153.672 10.9468V12.0988C153.384 12.0828 153.016 12.0988 152.616 12.1628C150.408 12.5308 149.24 14.1468 149 15.8588H149.048C149.544 15.2028 150.408 14.6588 151.56 14.6588C153.4 14.6588 154.696 15.9868 154.696 18.0188C154.696 19.9228 153.4 21.6828 151.24 21.6828C149.016 21.6828 147.56 19.9548 147.56 17.2508C147.56 15.2028 148.296 13.5868 149.32 12.5628C150.184 11.7148 151.336 11.1868 152.648 11.0268C153.064 10.9628 153.416 10.9468 153.672 10.9468ZM151.24 20.5948H151.256C152.456 20.5948 153.272 19.5868 153.272 18.0988C153.272 16.6108 152.424 15.7148 151.128 15.7148C150.28 15.7148 149.496 16.2428 149.112 16.9948C149.016 17.1548 148.952 17.3628 148.952 17.6188C148.984 19.3308 149.768 20.5948 151.24 20.5948ZM159.411 10.9308C161.603 10.9308 162.851 12.8828 162.851 16.1948C162.851 19.7308 161.539 21.6828 159.235 21.6828C157.203 21.6828 155.827 19.7788 155.795 16.3388C155.795 12.8508 157.299 10.9308 159.411 10.9308ZM159.331 12.0188C158.099 12.0188 157.203 13.5228 157.203 16.3548C157.203 19.0588 158.035 20.5948 159.315 20.5948C160.755 20.5948 161.443 18.9148 161.443 16.2588C161.443 13.6988 160.787 12.0188 159.331 12.0188ZM167.614 10.9308C169.806 10.9308 171.054 12.8828 171.054 16.1948C171.054 19.7308 169.742 21.6828 167.438 21.6828C165.406 21.6828 164.03 19.7788 163.998 16.3388C163.998 12.8508 165.502 10.9308 167.614 10.9308ZM167.534 12.0188C166.302 12.0188 165.406 13.5228 165.406 16.3548C165.406 19.0588 166.238 20.5948 167.518 20.5948C168.958 20.5948 169.646 18.9148 169.646 16.2588C169.646 13.6988 168.99 12.0188 167.534 12.0188ZM175.817 10.9308C178.009 10.9308 179.257 12.8828 179.257 16.1948C179.257 19.7308 177.945 21.6828 175.641 21.6828C173.609 21.6828 172.233 19.7788 172.201 16.3388C172.201 12.8508 173.705 10.9308 175.817 10.9308ZM175.737 12.0188C174.505 12.0188 173.609 13.5228 173.609 16.3548C173.609 19.0588 174.441 20.5948 175.721 20.5948C177.161 20.5948 177.849 18.9148 177.849 16.2588C177.849 13.6988 177.193 12.0188 175.737 12.0188Z" fill="white"/>
</svg>
