<svg width="34" height="35" viewBox="0 0 34 35" fill="none" xmlns="http://www.w3.org/2000/svg">
<rect y="0.506836" width="34" height="34" rx="2" fill="white"/>
<path d="M13.2056 12.2568C13.2053 12.8675 12.8348 13.4171 12.2687 13.6464C11.7027 13.8757 11.0541 13.7389 10.6289 13.3005C10.2037 12.8621 10.0867 12.2097 10.3331 11.6509C10.5795 11.0921 11.1401 10.7385 11.7506 10.7568C12.5614 10.7811 13.206 11.4456 13.2056 12.2568ZM13.2506 14.8668H10.2506V24.2568H13.2506V14.8668ZM17.9906 14.8668H15.0056V24.2568H17.9606V19.3293C17.9606 16.5843 21.5381 16.3293 21.5381 19.3293V24.2568H24.5006V18.3093C24.5006 13.6818 19.2056 13.8543 17.9606 16.1268L17.9906 14.8668Z" fill="#500878"/>
</svg>
