<svg width="34" height="35" viewBox="0 0 34 35" fill="none" xmlns="http://www.w3.org/2000/svg">
<rect y="0.506836" width="34" height="34" rx="2" fill="white"/>
<path d="M17.7713 10.0076C18.6154 10.009 19.0431 10.0134 19.4127 10.0244L19.5583 10.0292C19.7264 10.0352 19.8923 10.0427 20.0923 10.052C20.8904 10.0889 21.4348 10.2152 21.913 10.4008C22.4073 10.5914 22.8248 10.8489 23.2417 11.2658C23.6579 11.6827 23.9155 12.1014 24.1067 12.5945C24.2917 13.072 24.418 13.617 24.4555 14.4152C24.4644 14.6152 24.4716 14.7811 24.4775 14.9493L24.4822 15.0948C24.4932 15.4644 24.4982 15.8922 24.4998 16.7362L24.5004 17.2955C24.5005 17.3638 24.5005 17.4343 24.5005 17.5071L24.5004 17.7186L24.4999 18.2779C24.4985 19.122 24.4941 19.5497 24.4831 19.9193L24.4783 20.0649C24.4723 20.233 24.4648 20.3989 24.4555 20.5989C24.4186 21.397 24.2917 21.9414 24.1067 22.4196C23.9161 22.9139 23.6579 23.3314 23.2417 23.7483C22.8248 24.1645 22.4054 24.4221 21.913 24.6133C21.4348 24.7983 20.8904 24.9246 20.0923 24.9621C19.8923 24.971 19.7264 24.9782 19.5583 24.9841L19.4127 24.9888C19.0431 24.9998 18.6154 25.0048 17.7713 25.0064L17.212 25.007C17.1437 25.0071 17.0732 25.0071 17.0005 25.0071L16.7889 25.007L16.2296 25.0065C15.3856 25.0051 14.9578 25.0007 14.5882 24.9897L14.4427 24.9849C14.2745 24.9789 14.1086 24.9714 13.9086 24.9621C13.1104 24.9252 12.5667 24.7983 12.088 24.6133C11.5942 24.4227 11.1761 24.1645 10.7592 23.7483C10.3423 23.3314 10.0855 22.912 9.8942 22.4196C9.70858 21.9414 9.58295 21.397 9.54545 20.5989C9.53654 20.3989 9.52927 20.233 9.52339 20.0649L9.51867 19.9193C9.5077 19.5497 9.50269 19.122 9.50107 18.2779L9.50098 16.7362C9.50237 15.8922 9.50683 15.4644 9.51784 15.0948L9.5226 14.9493C9.52858 14.7811 9.53608 14.6152 9.54545 14.4152C9.58232 13.6164 9.70858 13.0727 9.8942 12.5945C10.0848 12.1008 10.3423 11.6827 10.7592 11.2658C11.1761 10.8489 11.5948 10.592 12.088 10.4008C12.5661 10.2152 13.1098 10.0895 13.9086 10.052C14.1086 10.0431 14.2745 10.0359 14.4427 10.03L14.5882 10.0253C14.9578 10.0143 15.3856 10.0093 16.2296 10.0077L17.7713 10.0076ZM17.0005 13.757C14.9283 13.757 13.2505 15.4367 13.2505 17.5071C13.2505 19.5792 14.9301 21.2571 17.0005 21.2571C19.0726 21.2571 20.7505 19.5774 20.7505 17.5071C20.7505 15.4349 19.0708 13.757 17.0005 13.757ZM17.0005 15.257C18.2431 15.257 19.2505 16.264 19.2505 17.5071C19.2505 18.7497 18.2434 19.7571 17.0005 19.7571C15.7578 19.7571 14.7505 18.75 14.7505 17.5071C14.7505 16.2644 15.7574 15.257 17.0005 15.257ZM20.938 12.632C20.421 12.632 20.0005 13.052 20.0005 13.5689C20.0005 14.0858 20.4204 14.5064 20.938 14.5064C21.4549 14.5064 21.8755 14.0865 21.8755 13.5689C21.8755 13.052 21.4542 12.6314 20.938 12.632Z" fill="#500878"/>
</svg>
