<svg width="34" height="35" viewBox="0 0 34 35" fill="none" xmlns="http://www.w3.org/2000/svg">
<rect y="0.506836" width="34" height="34" rx="2" fill="white"/>
<path d="M17.1829 11.5068C17.5835 11.509 18.5857 11.5187 19.6506 11.5614L20.0281 11.5778C21.1003 11.6286 22.1715 11.7153 22.7028 11.8635C23.4115 12.0625 23.9685 12.6435 24.1567 13.3798C24.4565 14.5491 24.494 16.8314 24.4986 17.3837L24.4993 17.4981V17.5062C24.4993 17.5062 24.4993 17.5089 24.4993 17.5143L24.4986 17.6287C24.494 18.181 24.4565 20.4633 24.1567 21.6326C23.9658 22.3716 23.4088 22.9526 22.7028 23.1489C22.1715 23.2971 21.1003 23.3838 20.0281 23.4345L19.6506 23.451C18.5857 23.4936 17.5835 23.5033 17.1829 23.5056L17.0071 23.5062H16.9993C16.9993 23.5062 16.9967 23.5062 16.9915 23.5062L16.8159 23.5056C15.9681 23.5009 12.4233 23.4626 11.2959 23.1489C10.5872 22.9498 10.0302 22.3689 9.8419 21.6326C9.54215 20.4633 9.50468 18.181 9.5 17.6287V17.3837C9.50468 16.8314 9.54215 14.5491 9.8419 13.3798C10.0328 12.6407 10.5898 12.0598 11.2959 11.8635C12.4233 11.5498 15.9681 11.5115 16.8159 11.5068H17.1829ZM15.4993 14.8812V20.1312L19.9993 17.5062L15.4993 14.8812Z" fill="#500878"/>
</svg>
