<svg width="34" height="35" viewBox="0 0 34 35" fill="none" xmlns="http://www.w3.org/2000/svg">
<rect y="0.506836" width="34" height="34" rx="2" fill="white"/>
<path d="M24.6594 12.7489C24.0868 13.0021 23.4796 13.1685 22.858 13.2424C23.5129 12.8503 24.0031 12.2335 24.237 11.5069C23.6215 11.8725 22.9479 12.1299 22.2454 12.2678C21.6523 11.6351 20.8235 11.2766 19.9564 11.2776C18.2245 11.2776 16.8198 12.6818 16.8198 14.4145C16.8198 14.6603 16.848 14.8986 16.9007 15.1287C14.2929 14.9974 11.9826 13.7494 10.4351 11.8514C10.1565 12.3301 10.01 12.8742 10.0108 13.4281C10.0108 14.5163 10.5647 15.4768 11.4061 16.0391C10.908 16.0233 10.4209 15.8888 9.98539 15.6466C9.98491 15.6598 9.98491 15.673 9.98491 15.6854C9.98491 17.2056 11.0661 18.4737 12.5015 18.7617C12.2321 18.8346 11.9542 18.8714 11.6752 18.8712C11.4725 18.8712 11.2758 18.8525 11.0846 18.8158C11.484 20.0617 12.6416 20.9688 14.0147 20.9937C12.9036 21.8657 11.5315 22.3388 10.1191 22.3368C9.86909 22.337 9.61932 22.3222 9.37109 22.2927C10.805 23.2145 12.4741 23.7037 14.1788 23.7019C19.9487 23.7019 23.1035 18.9225 23.1035 14.7777C23.1035 14.6421 23.1002 14.506 23.0942 14.3718C23.7082 13.9282 24.2383 13.3786 24.6594 12.7489Z" fill="#500878"/>
</svg>
