<svg width="1280" height="59" viewBox="0 0 1280 59" fill="none" xmlns="http://www.w3.org/2000/svg">
<path d="M540.344 10C540.365 12.5 539.469 14.3229 537.656 15.4688C536.448 16.2396 534.719 16.625 532.469 16.625H529.344V24H526.625V5.625H524.844V3.75H532.219C534.719 3.72917 536.573 4.11458 537.781 4.90625C539.469 5.90625 540.323 7.60417 540.344 10ZM537.625 10.0938C537.646 8.44792 537.104 7.23958 536 6.46875C535.146 5.90625 533.896 5.625 532.25 5.625H529.344V14.75H531.844C533.656 14.8125 535.073 14.5208 536.094 13.875C537.094 13.25 537.604 11.9896 537.625 10.0938V10.0625V10.0938ZM551.281 8.34375V10.4375L550.438 10.375C549.229 10.375 548.312 10.7812 547.688 11.5938C546.979 12.4688 546.646 13.8125 546.688 15.625V24H544.188V10.375H542.406V8.5625H545.906L546.375 10.75C547.25 9.125 548.594 8.29167 550.406 8.25L551.281 8.34375V8.3125V8.34375ZM567.031 16.2812C567.01 18.8229 566.396 20.7812 565.188 22.1562C564 23.5312 562.344 24.2292 560.219 24.25C558.115 24.2292 556.458 23.5312 555.25 22.1562C554.042 20.7812 553.427 18.8229 553.406 16.2812C553.427 13.7396 554.042 11.7708 555.25 10.375C556.458 8.97917 558.115 8.27083 560.219 8.25C562.344 8.27083 564 8.97917 565.188 10.375C566.396 11.7708 567.01 13.7396 567.031 16.2812ZM564.531 16.2812C564.448 12.1146 563.01 10.0625 560.219 10.125C557.448 10.0625 556.01 12.1146 555.906 16.2812C556.01 20.4271 557.448 22.4583 560.219 22.375C563.01 22.4583 564.448 20.4271 564.531 16.2812V16.25V16.2812ZM584.531 22L584.375 23.625C583.979 23.9167 583.406 24.0729 582.656 24.0938C581.365 24.1146 580.594 23.5104 580.344 22.2812C579.49 23.5312 578.083 24.1875 576.125 24.25C573.896 24.2083 572.25 23.4896 571.188 22.0938C570.125 20.7188 569.594 18.9688 569.594 16.8438C569.594 14.1354 570.333 11.9688 571.812 10.3438C573.146 8.98958 575.021 8.29167 577.438 8.25C578.521 8.27083 579.448 8.42708 580.219 8.71875V3.96875H578.438V2.125H582.719V21C582.677 21.9167 582.958 22.3438 583.562 22.2812C583.938 22.2604 584.26 22.1667 584.531 22ZM580.219 17.5V10.4375L577.625 10C574.021 9.97917 572.177 12.2188 572.094 16.7188C572.094 18.3854 572.438 19.7396 573.125 20.7812C573.792 21.8229 574.865 22.3542 576.344 22.375C577.99 22.3125 579.104 21.6562 579.688 20.4062C580.083 19.5938 580.26 18.625 580.219 17.5V17.4688V17.5ZM602.031 22L601.938 23.625C601.521 23.9167 600.938 24.0729 600.188 24.0938C598.938 24.1146 598.177 23.5 597.906 22.25C596.99 23.5208 595.448 24.1875 593.281 24.25C591.365 24.2292 589.917 23.6771 588.938 22.5938C588.042 21.5104 587.635 20.1042 587.719 18.375V8.5H590.219V18.0938C590.135 19.5729 590.406 20.6458 591.031 21.3125C591.635 21.9375 592.542 22.25 593.75 22.25C595.083 22.25 596.083 21.8646 596.75 21.0938C597.458 20.3438 597.781 19.1146 597.719 17.4062V8.5H600.219V20.9375C600.198 21.8958 600.49 22.3438 601.094 22.2812C601.469 22.2604 601.781 22.1667 602.031 22V21.9688V22ZM618.406 22.125L618.344 23.7188C617.927 23.9688 617.406 24.1042 616.781 24.125C615.573 24.1875 614.635 23.5833 613.969 22.3125L610.5 16.25H608.125V24H605.625V3.96875H603.844V2.125H608.125V14.375H610.5L614.531 8.5H617.094L612.531 15.1875L616.031 21.3125C616.427 22.0417 616.906 22.3958 617.469 22.375C617.823 22.375 618.135 22.2917 618.406 22.125V22.0938V22.125ZM618.781 24V23.9688V24ZM642.969 3.75V16.5625C643.01 18.8333 642.573 20.5625 641.656 21.75C640.531 23.3958 638.521 24.2292 635.625 24.25C633.167 24.2708 631.333 23.6146 630.125 22.2812C629 21.1354 628.458 19.3229 628.5 16.8438V3.75H631.219V16.5625C631.198 18.5833 631.479 19.9896 632.062 20.7812C632.812 21.7812 634.021 22.2812 635.688 22.2812C637.438 22.2604 638.656 21.7604 639.344 20.7812C639.99 19.8438 640.292 18.4167 640.25 16.5V3.75H642.969V3.71875V3.75ZM660.531 14.0938V24H658.031V14.4062C658.115 12.9271 657.854 11.8542 657.25 11.1875C656.667 10.5417 655.781 10.2188 654.594 10.2188C653.26 10.2396 652.271 10.6354 651.625 11.4062C650.938 12.1354 650.615 13.3646 650.656 15.0938V24H648.156V10.375H646.375V8.5H649.812L650.25 10.4375C651.188 9 652.781 8.27083 655.031 8.25C656.906 8.29167 658.344 8.84375 659.344 9.90625C660.219 10.9896 660.615 12.3854 660.531 14.0938V14.0625V14.0938ZM677.375 9.3125V23.2188C677.396 24.5729 677.323 25.6667 677.156 26.5C676.99 27.3333 676.667 28.0417 676.188 28.625C674.833 30.125 673.031 30.8333 670.781 30.75C668.74 30.7083 667.042 30.3229 665.688 29.5938L665.75 27.6562C667.208 28.4479 668.823 28.8542 670.594 28.875C672.073 28.8958 673.219 28.4688 674.031 27.5938C674.656 26.9271 674.938 25.5938 674.875 23.5938V22.0938C674.042 23.2812 672.646 23.9167 670.688 24C668.542 23.9792 666.927 23.3125 665.844 22C664.76 20.6875 664.219 18.9167 664.219 16.6875C664.24 13.8125 665.104 11.6354 666.812 10.1562C668.229 8.90625 670.073 8.28125 672.344 8.28125C674.219 8.30208 675.896 8.64583 677.375 9.3125ZM674.875 17.9688V10.5C674.167 10.1667 673.323 10 672.344 10C670.823 10 669.573 10.4167 668.594 11.25C667.365 12.3958 666.75 14.125 666.75 16.4375C666.729 18.0833 667.052 19.4375 667.719 20.5C668.385 21.5625 669.49 22.1042 671.031 22.125C672.26 22.1042 673.198 21.75 673.844 21.0625C674.552 20.3333 674.896 19.3021 674.875 17.9688V17.9375V17.9688ZM694.219 9.3125V23.2188C694.24 24.5729 694.167 25.6667 694 26.5C693.833 27.3333 693.51 28.0417 693.031 28.625C691.677 30.125 689.875 30.8333 687.625 30.75C685.583 30.7083 683.885 30.3229 682.531 29.5938L682.594 27.6562C684.052 28.4479 685.667 28.8542 687.438 28.875C688.917 28.8958 690.062 28.4688 690.875 27.5938C691.5 26.9271 691.781 25.5938 691.719 23.5938V22.0938C690.885 23.2812 689.49 23.9167 687.531 24C685.385 23.9792 683.771 23.3125 682.688 22C681.604 20.6875 681.062 18.9167 681.062 16.6875C681.083 13.8125 681.948 11.6354 683.656 10.1562C685.073 8.90625 686.917 8.28125 689.188 8.28125C691.062 8.30208 692.74 8.64583 694.219 9.3125ZM691.719 17.9688V10.5C691.01 10.1667 690.167 10 689.188 10C687.667 10 686.417 10.4167 685.438 11.25C684.208 12.3958 683.594 14.125 683.594 16.4375C683.573 18.0833 683.896 19.4375 684.562 20.5C685.229 21.5625 686.333 22.1042 687.875 22.125C689.104 22.1042 690.042 21.75 690.688 21.0625C691.396 20.3333 691.74 19.3021 691.719 17.9688V17.9375V17.9688ZM713.125 22L713.031 23.625C712.615 23.9167 712.031 24.0729 711.281 24.0938C710.031 24.1146 709.271 23.5 709 22.25C708.083 23.5208 706.542 24.1875 704.375 24.25C702.458 24.2292 701.01 23.6771 700.031 22.5938C699.135 21.5104 698.729 20.1042 698.812 18.375V8.5H701.312V18.0938C701.229 19.5729 701.5 20.6458 702.125 21.3125C702.729 21.9375 703.635 22.25 704.844 22.25C706.177 22.25 707.177 21.8646 707.844 21.0938C708.552 20.3438 708.875 19.1146 708.812 17.4062V8.5H711.312V20.9375C711.292 21.8958 711.583 22.3438 712.188 22.2812C712.562 22.2604 712.875 22.1667 713.125 22V21.9688V22ZM721.031 22.0938L720.875 23.6875C720.479 23.9583 719.906 24.1042 719.156 24.125C718.302 24.125 717.677 23.8958 717.281 23.4375C716.906 23 716.719 22.3229 716.719 21.4062V3.96875H714.938V2.125H719.219V21.0312C719.177 21.9896 719.458 22.4375 720.062 22.375C720.438 22.3333 720.76 22.2396 721.031 22.0938V22.0625V22.0938ZM737.656 22.0625L737.562 23.6562C737.125 23.9271 736.552 24.0729 735.844 24.0938C734.49 24.1146 733.719 23.5208 733.531 22.3125C732.594 23.6042 731.219 24.25 729.406 24.25C727.802 24.25 726.5 23.8125 725.5 22.9375C724.521 22.0833 724.01 20.8438 723.969 19.2188C723.969 17.6562 724.49 16.4062 725.531 15.4688C726.573 14.5312 728.104 14.0521 730.125 14.0312L733.344 14.4375V13.5938C733.365 12.4688 733.125 11.625 732.625 11.0625C732.083 10.3958 731.115 10.0417 729.719 10C728.135 10.0417 726.698 10.3854 725.406 11.0312L725.344 9.21875C726.573 8.63542 728.115 8.3125 729.969 8.25C732.094 8.22917 733.677 8.77083 734.719 9.875C735.49 10.7083 735.865 11.9375 735.844 13.5625V21.0312C735.781 21.9271 736.062 22.3646 736.688 22.3438C737.042 22.3229 737.365 22.2292 737.656 22.0625ZM733.344 18.4375V16.125L730.375 15.75C727.625 15.8958 726.323 17.0104 726.469 19.0938C726.49 20.2396 726.812 21.0938 727.438 21.6562C728.042 22.2188 728.802 22.5 729.719 22.5C731.01 22.4792 731.948 22.1042 732.531 21.375C733.094 20.6458 733.365 19.6667 733.344 18.4375V18.4062V18.4375ZM753.688 14.0938V24H751.188V14.4062C751.271 12.9271 751.01 11.8542 750.406 11.1875C749.823 10.5417 748.938 10.2188 747.75 10.2188C746.417 10.2396 745.427 10.6354 744.781 11.4062C744.094 12.1354 743.771 13.3646 743.812 15.0938V24H741.312V10.375H739.531V8.5H742.969L743.406 10.4375C744.344 9 745.938 8.27083 748.188 8.25C750.062 8.29167 751.5 8.84375 752.5 9.90625C753.375 10.9896 753.771 12.3854 753.688 14.0938V14.0625V14.0938Z" fill="#500878"/>
<path d="M454.294 53.968V43.36C454.902 43.232 455.862 43.136 456.838 43.136C458.23 43.136 459.126 43.376 459.798 43.92C460.358 44.336 460.694 44.976 460.694 45.824C460.694 46.864 460.006 47.776 458.87 48.192V48.224C459.894 48.48 461.094 49.328 461.094 50.928C461.094 51.856 460.726 52.56 460.182 53.088C459.43 53.776 458.214 54.096 456.454 54.096C455.494 54.096 454.758 54.032 454.294 53.968ZM455.686 44.304V47.776H456.95C458.422 47.776 459.286 47.008 459.286 45.968C459.286 44.704 458.326 44.208 456.918 44.208C456.278 44.208 455.91 44.256 455.686 44.304ZM455.686 48.832V52.944C455.958 52.992 456.358 53.008 456.854 53.008C458.294 53.008 459.622 52.48 459.622 50.912C459.622 49.44 458.358 48.832 456.838 48.832H455.686ZM469.205 50.384H463.765C463.797 52.288 465.013 53.072 466.421 53.072C467.429 53.072 468.037 52.896 468.565 52.672L468.805 53.68C468.309 53.904 467.461 54.176 466.229 54.176C463.845 54.176 462.421 52.592 462.421 50.256C462.421 47.92 463.797 46.08 466.053 46.08C468.581 46.08 469.253 48.304 469.253 49.728C469.253 50.016 469.221 50.24 469.205 50.384ZM463.781 49.376H467.893C467.909 48.48 467.525 47.088 465.941 47.088C464.517 47.088 463.893 48.4 463.781 49.376ZM470.996 52V42.64H472.388V47.504H472.42C472.916 46.64 473.812 46.08 475.06 46.08C476.98 46.08 478.34 47.68 478.324 50.032C478.324 52.8 476.58 54.176 474.852 54.176C473.732 54.176 472.836 53.744 472.26 52.72H472.212L472.148 54H470.932C470.964 53.472 470.996 52.688 470.996 52ZM472.388 49.504V50.896C472.388 51.072 472.42 51.248 472.452 51.408C472.724 52.384 473.54 53.056 474.564 53.056C476.036 53.056 476.916 51.856 476.916 50.08C476.916 48.528 476.116 47.2 474.612 47.2C473.652 47.2 472.756 47.856 472.468 48.928C472.436 49.088 472.388 49.28 472.388 49.504ZM486.33 50.384H480.89C480.922 52.288 482.138 53.072 483.546 53.072C484.554 53.072 485.162 52.896 485.69 52.672L485.93 53.68C485.434 53.904 484.586 54.176 483.354 54.176C480.97 54.176 479.546 52.592 479.546 50.256C479.546 47.92 480.922 46.08 483.178 46.08C485.706 46.08 486.378 48.304 486.378 49.728C486.378 50.016 486.346 50.24 486.33 50.384ZM480.906 49.376H485.018C485.034 48.48 484.65 47.088 483.066 47.088C481.642 47.088 481.018 48.4 480.906 49.376ZM488.121 54V48.672C488.121 47.76 488.105 46.976 488.057 46.256H489.289L489.337 47.776H489.401C489.753 46.736 490.601 46.08 491.545 46.08C491.705 46.08 491.817 46.096 491.945 46.128V47.456C491.801 47.424 491.657 47.408 491.465 47.408C490.473 47.408 489.769 48.16 489.577 49.216C489.545 49.408 489.513 49.632 489.513 49.872V54H488.121ZM498.717 49.248V52.144C498.717 52.816 498.749 53.472 498.845 54H497.565L497.453 53.024H497.405C496.973 53.632 496.141 54.176 495.037 54.176C493.469 54.176 492.669 53.072 492.669 51.952C492.669 50.08 494.333 49.056 497.325 49.072V48.912C497.325 48.272 497.149 47.12 495.565 47.12C494.845 47.12 494.093 47.344 493.549 47.696L493.229 46.768C493.869 46.352 494.797 46.08 495.773 46.08C498.141 46.08 498.717 47.696 498.717 49.248ZM497.357 51.392V50.048C495.821 50.016 494.077 50.288 494.077 51.792C494.077 52.704 494.685 53.136 495.405 53.136C496.413 53.136 497.053 52.496 497.277 51.84C497.325 51.696 497.357 51.536 497.357 51.392ZM500.996 57.168V48.784C500.996 47.792 500.964 46.992 500.932 46.256H502.196L502.26 47.584H502.292C502.868 46.64 503.78 46.08 505.044 46.08C506.916 46.08 508.324 47.664 508.324 50.016C508.324 52.8 506.628 54.176 504.804 54.176C503.78 54.176 502.884 53.728 502.42 52.96H502.388V57.168H500.996ZM502.388 49.52V50.848C502.388 51.056 502.42 51.248 502.452 51.424C502.708 52.4 503.556 53.072 504.564 53.072C506.052 53.072 506.916 51.856 506.916 50.08C506.916 48.528 506.1 47.2 504.612 47.2C503.652 47.2 502.756 47.888 502.484 48.944C502.436 49.12 502.388 49.328 502.388 49.52ZM515.546 49.248V52.144C515.546 52.816 515.578 53.472 515.674 54H514.394L514.282 53.024H514.234C513.802 53.632 512.97 54.176 511.866 54.176C510.298 54.176 509.498 53.072 509.498 51.952C509.498 50.08 511.162 49.056 514.154 49.072V48.912C514.154 48.272 513.978 47.12 512.394 47.12C511.674 47.12 510.922 47.344 510.378 47.696L510.058 46.768C510.698 46.352 511.626 46.08 512.602 46.08C514.97 46.08 515.546 47.696 515.546 49.248ZM514.186 51.392V50.048C512.65 50.016 510.906 50.288 510.906 51.792C510.906 52.704 511.514 53.136 512.234 53.136C513.242 53.136 513.882 52.496 514.106 51.84C514.154 51.696 514.186 51.536 514.186 51.392ZM521.215 54V42.64H522.623V54H521.215ZM530.436 49.248V52.144C530.436 52.816 530.468 53.472 530.564 54H529.284L529.172 53.024H529.124C528.692 53.632 527.86 54.176 526.756 54.176C525.188 54.176 524.388 53.072 524.388 51.952C524.388 50.08 526.052 49.056 529.044 49.072V48.912C529.044 48.272 528.868 47.12 527.284 47.12C526.564 47.12 525.812 47.344 525.268 47.696L524.948 46.768C525.588 46.352 526.516 46.08 527.492 46.08C529.86 46.08 530.436 47.696 530.436 49.248ZM529.076 51.392V50.048C527.54 50.016 525.796 50.288 525.796 51.792C525.796 52.704 526.404 53.136 527.124 53.136C528.132 53.136 528.772 52.496 528.996 51.84C529.044 51.696 529.076 51.536 529.076 51.392ZM531.566 46.256H533.102L534.798 50.832C534.974 51.344 535.166 51.952 535.294 52.416H535.326C535.47 51.952 535.63 51.36 535.822 50.8L537.358 46.256H538.846L536.734 51.776C535.726 54.432 535.038 55.792 534.078 56.624C533.39 57.232 532.702 57.472 532.35 57.536L531.998 56.352C532.35 56.24 532.814 56.016 533.23 55.664C533.614 55.36 534.094 54.816 534.414 54.096C534.478 53.952 534.526 53.84 534.526 53.76C534.526 53.68 534.494 53.568 534.43 53.392L531.566 46.256ZM545.499 49.248V52.144C545.499 52.816 545.531 53.472 545.627 54H544.347L544.235 53.024H544.187C543.755 53.632 542.923 54.176 541.819 54.176C540.251 54.176 539.451 53.072 539.451 51.952C539.451 50.08 541.115 49.056 544.107 49.072V48.912C544.107 48.272 543.931 47.12 542.347 47.12C541.627 47.12 540.875 47.344 540.331 47.696L540.011 46.768C540.651 46.352 541.579 46.08 542.555 46.08C544.923 46.08 545.499 47.696 545.499 49.248ZM544.139 51.392V50.048C542.603 50.016 540.859 50.288 540.859 51.792C540.859 52.704 541.467 53.136 542.187 53.136C543.195 53.136 543.835 52.496 544.059 51.84C544.107 51.696 544.139 51.536 544.139 51.392ZM547.777 54V48.352C547.777 47.552 547.761 46.896 547.713 46.256H548.961L549.041 47.536H549.073C549.457 46.8 550.353 46.08 551.633 46.08C552.705 46.08 554.369 46.72 554.369 49.376V54H552.961V49.536C552.961 48.288 552.497 47.248 551.169 47.248C550.241 47.248 549.521 47.904 549.281 48.688C549.217 48.864 549.185 49.104 549.185 49.344V54H547.777ZM562.092 49.248V52.144C562.092 52.816 562.124 53.472 562.22 54H560.94L560.828 53.024H560.78C560.348 53.632 559.516 54.176 558.412 54.176C556.844 54.176 556.044 53.072 556.044 51.952C556.044 50.08 557.708 49.056 560.7 49.072V48.912C560.7 48.272 560.524 47.12 558.94 47.12C558.22 47.12 557.468 47.344 556.924 47.696L556.604 46.768C557.244 46.352 558.172 46.08 559.148 46.08C561.516 46.08 562.092 47.696 562.092 49.248ZM560.732 51.392V50.048C559.196 50.016 557.452 50.288 557.452 51.792C557.452 52.704 558.06 53.136 558.78 53.136C559.788 53.136 560.428 52.496 560.652 51.84C560.7 51.696 560.732 51.536 560.732 51.392ZM564.371 54V48.352C564.371 47.552 564.355 46.896 564.307 46.256H565.555L565.635 47.536H565.667C566.051 46.8 566.947 46.08 568.227 46.08C569.299 46.08 570.963 46.72 570.963 49.376V54H569.555V49.536C569.555 48.288 569.091 47.248 567.763 47.248C566.835 47.248 566.115 47.904 565.875 48.688C565.811 48.864 565.779 49.104 565.779 49.344V54H564.371ZM576.637 57.168V48.784C576.637 47.792 576.605 46.992 576.573 46.256H577.837L577.901 47.584H577.933C578.509 46.64 579.421 46.08 580.685 46.08C582.557 46.08 583.965 47.664 583.965 50.016C583.965 52.8 582.269 54.176 580.445 54.176C579.421 54.176 578.525 53.728 578.061 52.96H578.029V57.168H576.637ZM578.029 49.52V50.848C578.029 51.056 578.061 51.248 578.093 51.424C578.349 52.4 579.197 53.072 580.205 53.072C581.693 53.072 582.557 51.856 582.557 50.08C582.557 48.528 581.741 47.2 580.253 47.2C579.293 47.2 578.397 47.888 578.125 48.944C578.077 49.12 578.029 49.328 578.029 49.52ZM585.746 54V48.672C585.746 47.76 585.73 46.976 585.682 46.256H586.914L586.962 47.776H587.026C587.378 46.736 588.226 46.08 589.17 46.08C589.33 46.08 589.442 46.096 589.57 46.128V47.456C589.426 47.424 589.282 47.408 589.09 47.408C588.098 47.408 587.394 48.16 587.202 49.216C587.17 49.408 587.138 49.632 587.138 49.872V54H585.746ZM594.104 46.08C596.328 46.08 597.832 47.696 597.832 50.064C597.832 52.928 595.848 54.176 593.976 54.176C591.88 54.176 590.264 52.64 590.264 50.192C590.264 47.6 591.96 46.08 594.104 46.08ZM594.072 47.136C592.408 47.136 591.688 48.672 591.688 50.144C591.688 51.84 592.664 53.12 594.04 53.12C595.384 53.12 596.392 51.856 596.392 50.112C596.392 48.8 595.736 47.136 594.072 47.136ZM604.886 42.64H606.294V52C606.294 52.688 606.31 53.472 606.358 54H605.094L605.03 52.656H604.998C604.566 53.52 603.622 54.176 602.358 54.176C600.486 54.176 599.046 52.592 599.046 50.24C599.03 47.664 600.63 46.08 602.518 46.08C603.702 46.08 604.502 46.64 604.854 47.264H604.886V42.64ZM604.886 50.752V49.408C604.886 49.232 604.87 48.992 604.822 48.816C604.614 47.92 603.846 47.184 602.79 47.184C601.334 47.184 600.47 48.464 600.47 50.176C600.47 51.744 601.238 53.04 602.758 53.04C603.702 53.04 604.566 52.416 604.822 51.36C604.87 51.168 604.886 50.976 604.886 50.752ZM615.117 46.256V51.888C615.117 52.688 615.133 53.392 615.181 54H613.933L613.853 52.736H613.821C613.453 53.36 612.637 54.176 611.261 54.176C610.045 54.176 608.589 53.504 608.589 50.784V46.256H609.997V50.544C609.997 52.016 610.445 53.008 611.725 53.008C612.669 53.008 613.325 52.352 613.581 51.728C613.661 51.52 613.709 51.264 613.709 51.008V46.256H615.117ZM618.841 42.64V49.808H618.873C619.065 49.536 619.337 49.2 619.561 48.928L621.833 46.256H623.529L620.537 49.44L623.945 54H622.233L619.561 50.288L618.841 51.088V54H617.449V42.64H618.841ZM634.82 46.256V51.888C634.82 52.688 634.836 53.392 634.884 54H633.636L633.556 52.736H633.524C633.156 53.36 632.34 54.176 630.964 54.176C629.748 54.176 628.292 53.504 628.292 50.784V46.256H629.7V50.544C629.7 52.016 630.148 53.008 631.428 53.008C632.372 53.008 633.028 52.352 633.284 51.728C633.364 51.52 633.412 51.264 633.412 51.008V46.256H634.82ZM637.152 54V48.352C637.152 47.552 637.136 46.896 637.088 46.256H638.336L638.416 47.536H638.448C638.832 46.8 639.728 46.08 641.008 46.08C642.08 46.08 643.744 46.72 643.744 49.376V54H642.336V49.536C642.336 48.288 641.872 47.248 640.544 47.248C639.616 47.248 638.896 47.904 638.656 48.688C638.592 48.864 638.56 49.104 638.56 49.344V54H637.152ZM652.635 48.384V52.88C652.635 54.656 652.283 55.744 651.531 56.416C650.779 57.12 649.691 57.344 648.715 57.344C647.787 57.344 646.763 57.12 646.139 56.704L646.491 55.632C647.003 55.952 647.803 56.24 648.763 56.24C650.203 56.24 651.259 55.488 651.259 53.536V52.672H651.227C650.795 53.392 649.963 53.968 648.763 53.968C646.843 53.968 645.467 52.336 645.467 50.192C645.467 47.568 647.179 46.08 648.955 46.08C650.299 46.08 651.035 46.784 651.371 47.424H651.403L651.467 46.256H652.699C652.667 46.816 652.635 47.44 652.635 48.384ZM651.243 50.704V49.312C651.243 49.072 651.227 48.864 651.163 48.672C650.907 47.856 650.219 47.184 649.195 47.184C647.851 47.184 646.891 48.32 646.891 50.112C646.891 51.632 647.659 52.896 649.179 52.896C650.043 52.896 650.827 52.352 651.131 51.456C651.211 51.216 651.243 50.944 651.243 50.704ZM661.573 48.384V52.88C661.573 54.656 661.221 55.744 660.469 56.416C659.717 57.12 658.629 57.344 657.653 57.344C656.725 57.344 655.701 57.12 655.077 56.704L655.429 55.632C655.941 55.952 656.741 56.24 657.701 56.24C659.141 56.24 660.197 55.488 660.197 53.536V52.672H660.165C659.733 53.392 658.901 53.968 657.701 53.968C655.781 53.968 654.405 52.336 654.405 50.192C654.405 47.568 656.117 46.08 657.893 46.08C659.237 46.08 659.973 46.784 660.309 47.424H660.341L660.405 46.256H661.637C661.605 46.816 661.573 47.44 661.573 48.384ZM660.181 50.704V49.312C660.181 49.072 660.165 48.864 660.101 48.672C659.845 47.856 659.157 47.184 658.133 47.184C656.789 47.184 655.829 48.32 655.829 50.112C655.829 51.632 656.597 52.896 658.117 52.896C658.981 52.896 659.765 52.352 660.069 51.456C660.149 51.216 660.181 50.944 660.181 50.704ZM670.382 46.256V51.888C670.382 52.688 670.398 53.392 670.446 54H669.198L669.118 52.736H669.086C668.718 53.36 667.902 54.176 666.526 54.176C665.31 54.176 663.854 53.504 663.854 50.784V46.256H665.262V50.544C665.262 52.016 665.71 53.008 666.99 53.008C667.934 53.008 668.59 52.352 668.846 51.728C668.926 51.52 668.974 51.264 668.974 51.008V46.256H670.382ZM672.715 54V42.64H674.123V54H672.715ZM681.936 49.248V52.144C681.936 52.816 681.968 53.472 682.064 54H680.784L680.672 53.024H680.624C680.192 53.632 679.36 54.176 678.256 54.176C676.688 54.176 675.888 53.072 675.888 51.952C675.888 50.08 677.552 49.056 680.544 49.072V48.912C680.544 48.272 680.368 47.12 678.784 47.12C678.064 47.12 677.312 47.344 676.768 47.696L676.448 46.768C677.088 46.352 678.016 46.08 678.992 46.08C681.36 46.08 681.936 47.696 681.936 49.248ZM680.576 51.392V50.048C679.04 50.016 677.296 50.288 677.296 51.792C677.296 52.704 677.904 53.136 678.624 53.136C679.632 53.136 680.272 52.496 680.496 51.84C680.544 51.696 680.576 51.536 680.576 51.392ZM684.215 54V48.352C684.215 47.552 684.199 46.896 684.151 46.256H685.399L685.479 47.536H685.511C685.895 46.8 686.791 46.08 688.071 46.08C689.143 46.08 690.807 46.72 690.807 49.376V54H689.399V49.536C689.399 48.288 688.935 47.248 687.607 47.248C686.679 47.248 685.959 47.904 685.719 48.688C685.655 48.864 685.623 49.104 685.623 49.344V54H684.215ZM695.457 46.256H696.993L698.689 50.832C698.865 51.344 699.057 51.952 699.185 52.416H699.217C699.361 51.952 699.521 51.36 699.713 50.8L701.249 46.256H702.737L700.625 51.776C699.617 54.432 698.929 55.792 697.969 56.624C697.281 57.232 696.593 57.472 696.241 57.536L695.889 56.352C696.241 56.24 696.705 56.016 697.121 55.664C697.505 55.36 697.985 54.816 698.305 54.096C698.369 53.952 698.417 53.84 698.417 53.76C698.417 53.68 698.385 53.568 698.321 53.392L695.457 46.256ZM709.389 49.248V52.144C709.389 52.816 709.421 53.472 709.517 54H708.237L708.125 53.024H708.077C707.645 53.632 706.813 54.176 705.709 54.176C704.141 54.176 703.341 53.072 703.341 51.952C703.341 50.08 705.005 49.056 707.997 49.072V48.912C707.997 48.272 707.821 47.12 706.237 47.12C705.517 47.12 704.765 47.344 704.221 47.696L703.901 46.768C704.541 46.352 705.469 46.08 706.445 46.08C708.813 46.08 709.389 47.696 709.389 49.248ZM708.029 51.392V50.048C706.493 50.016 704.749 50.288 704.749 51.792C704.749 52.704 705.357 53.136 706.077 53.136C707.085 53.136 707.725 52.496 707.949 51.84C707.997 51.696 708.029 51.536 708.029 51.392ZM711.668 54V48.352C711.668 47.552 711.652 46.896 711.604 46.256H712.852L712.932 47.536H712.964C713.348 46.8 714.244 46.08 715.524 46.08C716.596 46.08 718.26 46.72 718.26 49.376V54H716.852V49.536C716.852 48.288 716.388 47.248 715.06 47.248C714.132 47.248 713.412 47.904 713.172 48.688C713.108 48.864 713.076 49.104 713.076 49.344V54H711.668ZM727.151 48.384V52.88C727.151 54.656 726.799 55.744 726.047 56.416C725.295 57.12 724.207 57.344 723.231 57.344C722.303 57.344 721.279 57.12 720.655 56.704L721.007 55.632C721.519 55.952 722.319 56.24 723.279 56.24C724.719 56.24 725.775 55.488 725.775 53.536V52.672H725.743C725.311 53.392 724.479 53.968 723.279 53.968C721.359 53.968 719.983 52.336 719.983 50.192C719.983 47.568 721.695 46.08 723.471 46.08C724.815 46.08 725.551 46.784 725.887 47.424H725.919L725.983 46.256H727.215C727.183 46.816 727.151 47.44 727.151 48.384ZM725.759 50.704V49.312C725.759 49.072 725.743 48.864 725.679 48.672C725.423 47.856 724.735 47.184 723.711 47.184C722.367 47.184 721.407 48.32 721.407 50.112C721.407 51.632 722.175 52.896 723.695 52.896C724.559 52.896 725.343 52.352 725.647 51.456C725.727 51.216 725.759 50.944 725.759 50.704ZM734.263 42.64V49.808H734.295C734.487 49.536 734.759 49.2 734.983 48.928L737.255 46.256H738.951L735.959 49.44L739.367 54H737.655L734.983 50.288L734.263 51.088V54H732.871V42.64H734.263ZM746.092 49.248V52.144C746.092 52.816 746.124 53.472 746.22 54H744.94L744.828 53.024H744.78C744.348 53.632 743.516 54.176 742.412 54.176C740.844 54.176 740.044 53.072 740.044 51.952C740.044 50.08 741.708 49.056 744.7 49.072V48.912C744.7 48.272 744.524 47.12 742.94 47.12C742.22 47.12 741.468 47.344 740.924 47.696L740.604 46.768C741.244 46.352 742.172 46.08 743.148 46.08C745.516 46.08 746.092 47.696 746.092 49.248ZM744.732 51.392V50.048C743.196 50.016 741.452 50.288 741.452 51.792C741.452 52.704 742.06 53.136 742.78 53.136C743.788 53.136 744.428 52.496 744.652 51.84C744.7 51.696 744.732 51.536 744.732 51.392ZM748.371 54V48.352C748.371 47.552 748.355 46.896 748.307 46.256H749.539L749.603 47.504H749.651C750.083 46.768 750.803 46.08 752.083 46.08C753.139 46.08 753.939 46.72 754.275 47.632H754.307C754.547 47.2 754.851 46.864 755.171 46.624C755.635 46.272 756.147 46.08 756.883 46.08C757.907 46.08 759.427 46.752 759.427 49.44V54H758.051V49.616C758.051 48.128 757.507 47.232 756.371 47.232C755.571 47.232 754.947 47.824 754.707 48.512C754.643 48.704 754.595 48.96 754.595 49.216V54H753.219V49.36C753.219 48.128 752.675 47.232 751.603 47.232C750.723 47.232 750.083 47.936 749.859 48.64C749.779 48.848 749.747 49.088 749.747 49.328V54H748.371ZM763.123 54H761.715V46.256H763.123V54ZM762.419 43.2C762.947 43.2 763.283 43.584 763.283 44.08C763.299 44.56 762.947 44.944 762.387 44.944C761.891 44.944 761.539 44.56 761.539 44.08C761.539 43.584 761.907 43.2 762.419 43.2ZM768.312 53.632L768.664 52.56C769.08 52.832 769.816 53.12 770.52 53.12C771.544 53.12 772.024 52.608 772.024 51.968C772.024 51.296 771.624 50.928 770.584 50.544C769.192 50.048 768.536 49.28 768.536 48.352C768.536 47.104 769.544 46.08 771.208 46.08C771.992 46.08 772.68 46.304 773.112 46.56L772.76 47.584C772.456 47.392 771.896 47.136 771.176 47.136C770.344 47.136 769.88 47.616 769.88 48.192C769.88 48.832 770.344 49.12 771.352 49.504C772.696 50.016 773.384 50.688 773.384 51.84C773.384 53.2 772.328 54.176 770.488 54.176C769.64 54.176 768.856 53.952 768.312 53.632ZM781.423 50.384H775.983C776.015 52.288 777.231 53.072 778.639 53.072C779.647 53.072 780.255 52.896 780.783 52.672L781.023 53.68C780.527 53.904 779.679 54.176 778.447 54.176C776.063 54.176 774.639 52.592 774.639 50.256C774.639 47.92 776.015 46.08 778.271 46.08C780.799 46.08 781.471 48.304 781.471 49.728C781.471 50.016 781.439 50.24 781.423 50.384ZM775.999 49.376H780.111C780.127 48.48 779.743 47.088 778.159 47.088C776.735 47.088 776.111 48.4 775.999 49.376ZM788.495 42.64H789.903V52C789.903 52.688 789.919 53.472 789.967 54H788.703L788.639 52.656H788.607C788.175 53.52 787.231 54.176 785.967 54.176C784.095 54.176 782.655 52.592 782.655 50.24C782.639 47.664 784.239 46.08 786.127 46.08C787.311 46.08 788.111 46.64 788.463 47.264H788.495V42.64ZM788.495 50.752V49.408C788.495 49.232 788.479 48.992 788.431 48.816C788.223 47.92 787.455 47.184 786.399 47.184C784.943 47.184 784.079 48.464 784.079 50.176C784.079 51.744 784.847 53.04 786.367 53.04C787.311 53.04 788.175 52.416 788.431 51.36C788.479 51.168 788.495 50.976 788.495 50.752ZM793.654 54H792.246V46.256H793.654V54ZM792.95 43.2C793.478 43.2 793.814 43.584 793.814 44.08C793.83 44.56 793.478 44.944 792.918 44.944C792.422 44.944 792.07 44.56 792.07 44.08C792.07 43.584 792.438 43.2 792.95 43.2ZM801.436 49.248V52.144C801.436 52.816 801.468 53.472 801.564 54H800.284L800.172 53.024H800.124C799.692 53.632 798.86 54.176 797.756 54.176C796.188 54.176 795.388 53.072 795.388 51.952C795.388 50.08 797.052 49.056 800.044 49.072V48.912C800.044 48.272 799.868 47.12 798.284 47.12C797.564 47.12 796.812 47.344 796.268 47.696L795.948 46.768C796.588 46.352 797.516 46.08 798.492 46.08C800.86 46.08 801.436 47.696 801.436 49.248ZM800.076 51.392V50.048C798.54 50.016 796.796 50.288 796.796 51.792C796.796 52.704 797.404 53.136 798.124 53.136C799.132 53.136 799.772 52.496 799.996 51.84C800.044 51.696 800.076 51.536 800.076 51.392ZM805.107 42.64V49.808H805.139C805.331 49.536 805.603 49.2 805.827 48.928L808.099 46.256H809.795L806.803 49.44L810.211 54H808.499L805.827 50.288L805.107 51.088V54H803.715V42.64H805.107ZM816.936 49.248V52.144C816.936 52.816 816.968 53.472 817.064 54H815.784L815.672 53.024H815.624C815.192 53.632 814.36 54.176 813.256 54.176C811.688 54.176 810.888 53.072 810.888 51.952C810.888 50.08 812.552 49.056 815.544 49.072V48.912C815.544 48.272 815.368 47.12 813.784 47.12C813.064 47.12 812.312 47.344 811.768 47.696L811.448 46.768C812.088 46.352 813.016 46.08 813.992 46.08C816.36 46.08 816.936 47.696 816.936 49.248ZM815.576 51.392V50.048C814.04 50.016 812.296 50.288 812.296 51.792C812.296 52.704 812.904 53.136 813.624 53.136C814.632 53.136 815.272 52.496 815.496 51.84C815.544 51.696 815.576 51.536 815.576 51.392ZM819.215 54V48.352C819.215 47.552 819.199 46.896 819.151 46.256H820.399L820.479 47.536H820.511C820.895 46.8 821.791 46.08 823.071 46.08C824.143 46.08 825.807 46.72 825.807 49.376V54H824.399V49.536C824.399 48.288 823.935 47.248 822.607 47.248C821.679 47.248 820.959 47.904 820.719 48.688C820.655 48.864 820.623 49.104 820.623 49.344V54H819.215Z" fill="#121212"/>
</svg>
